<svg width="7" height="11" viewBox="0 0 7 11" fill="none" xmlns="http://www.w3.org/2000/svg">
<path d="M6.67003 4.71863C6.61137 4.66299 6.54641 4.61603 6.47895 4.57519L1.95138 0.311839C1.5095 -0.103881 0.793355 -0.104078 0.351264 0.312036C-0.0906183 0.727954 -0.0906183 1.40254 0.351264 1.81885L4.25068 5.49048L0.331569 9.18145C-0.110523 9.59717 -0.110523 10.2719 0.331569 10.6883C0.552615 10.896 0.841964 11 1.13131 11C1.42066 11 1.71064 10.896 1.93106 10.6879L6.47895 6.40577C6.54641 6.36493 6.61116 6.31817 6.67003 6.26233C6.89632 6.04925 7.00485 5.76947 6.99982 5.49048C7.00506 5.21129 6.89632 4.93112 6.67003 4.71863Z" fill="white"/>
</svg>
