<svg width="8" height="14" viewBox="0 0 8 14" fill="none" xmlns="http://www.w3.org/2000/svg">
<path d="M7.43172 1.84568C7.61091 1.65745 7.76988 1.46196 7.74968 1.18884C7.75127 0.849813 7.71299 0.778878 7.30943 0.356626C6.8543 -0.119247 6.46084 -0.119247 6.00571 0.358859C5.37479 1.02143 4.74388 1.68394 4.11298 2.34644C2.85907 3.66314 1.60524 4.97977 0.351649 6.29664C-0.117836 6.79039 -0.117304 7.21152 0.353778 7.70638C0.884002 8.26352 1.41439 8.82044 1.94477 9.37735C3.29928 10.7996 4.65374 12.2218 6.00518 13.6475C6.26358 13.9195 6.55336 14.1022 6.90268 13.9374C7.30412 13.7481 7.63589 13.4431 7.74117 12.9655C7.81401 12.636 7.65185 12.383 7.43119 12.1529C6.65812 11.3453 5.88723 10.5356 5.11632 9.72594C4.45991 9.0365 3.80348 8.34705 3.14572 7.65891C2.93782 7.44164 2.81872 7.20035 2.85381 6.88813C2.8804 6.65187 3.01385 6.48319 3.16698 6.32233C3.87812 5.57641 4.58874 4.83021 5.29936 4.08401C6.00997 3.3378 6.72058 2.5916 7.43172 1.84568Z" fill="black"/>
</svg>
