<svg width="30" height="37" viewBox="0 0 30 37" fill="none" xmlns="http://www.w3.org/2000/svg">
<mask id="path-1-inside-1_163_592" fill="white">
<path d="M15.0116 10.2889C16.1074 10.2877 17.202 10.2974 18.2966 10.2841C18.7276 10.2793 19.0064 10.3856 19.1574 10.845C19.4399 11.6997 20.1242 12.2195 20.8839 12.6342C22.3049 13.4103 23.7453 14.1501 24.9872 15.2127C27.661 17.5023 29.5129 20.2683 29.9099 23.8199C30.4931 29.0278 28.2649 33.4378 22.6799 35.1967C19.1501 36.3089 15.5266 36.4733 11.8568 36.0974C9.78571 35.8858 7.77427 35.4905 5.86876 34.6322C2.11131 32.9398 0.183884 29.9816 0.0134226 25.9573C-0.2167 20.5173 2.52894 16.673 6.95728 13.8285C7.70487 13.3486 8.51821 12.9702 9.28894 12.5266C10.0268 12.1023 10.6331 11.5401 10.8949 10.7072C11.0155 10.3228 11.287 10.2914 11.6011 10.2901C12.7396 10.2877 13.8756 10.2889 15.0116 10.2889ZM14.4296 33.4898C19.3741 33.8839 24.4661 30.1388 24.6633 24.1826C24.8192 19.4619 21.4404 14.7195 15.4706 14.352C10.4578 14.0425 5.57289 17.6994 5.33303 23.6628C5.1163 29.0351 9.42044 33.3097 14.4296 33.4898Z"/>
<path d="M9.49228 2.38407C9.71753 2.4155 10.1644 2.45539 10.5991 2.54606C11.4745 2.72739 12.2111 2.46748 12.8175 1.8582C13.2436 1.43026 13.5967 0.929781 14.0168 0.494584C14.6536 -0.165466 15.3306 -0.163048 15.971 0.490957C16.2669 0.793177 16.5201 1.1365 16.7917 1.4629C17.5161 2.33813 18.3891 2.7975 19.569 2.52067C19.9805 2.42396 20.4115 2.39495 20.8352 2.3756C21.5134 2.34417 21.7119 2.56419 21.6644 3.2327C21.5548 4.79095 20.5698 5.95752 18.9395 6.41448C18.6485 6.49668 18.2662 6.7723 18.0397 6.47855C17.8729 6.26095 18.2528 6.00467 18.355 5.74959C18.4744 5.451 18.6095 5.15724 18.7471 4.8659C18.9103 4.52137 18.7775 4.25904 18.4817 4.10189C18.1517 3.92781 17.8838 4.08617 17.7292 4.39323C17.4833 4.87799 17.2921 5.39418 16.9268 5.81124C16.7417 6.0228 16.5421 6.22468 16.3399 6.42052C16.1865 6.568 15.9954 6.64537 15.7823 6.56921C15.529 6.47855 15.5777 6.24523 15.5753 6.05302C15.5668 5.40869 15.5729 4.76314 15.5668 4.11881C15.5631 3.73922 15.4511 3.42249 14.9933 3.4237C14.5343 3.42491 14.4271 3.74406 14.4235 4.12244C14.4174 4.76677 14.4235 5.41231 14.4149 6.05665C14.4125 6.25007 14.4588 6.48217 14.2043 6.57042C13.99 6.64416 13.8086 6.55591 13.6454 6.41931C13.0403 5.91279 12.6458 5.26966 12.3548 4.54555C12.1466 4.02814 11.7558 3.88308 11.4161 4.1587C11.192 4.34124 11.1153 4.56247 11.2359 4.85502C11.4209 5.30351 11.6121 5.74596 11.8763 6.15578C11.9396 6.2549 12.0431 6.36249 11.9737 6.48459C11.886 6.63933 11.718 6.58855 11.5877 6.55833C9.97566 6.19325 8.56083 5.34703 8.34167 3.36447C8.25522 2.55935 8.43907 2.35868 9.49228 2.38407Z"/>
<path d="M14.9762 9.20578C13.6393 9.20578 12.3037 9.2082 10.9668 9.20457C10.7659 9.20457 10.5577 9.20336 10.3641 9.15864C9.99391 9.07401 9.74066 8.84795 9.74918 8.4466C9.7577 8.07548 9.99757 7.86271 10.3434 7.77809C10.5175 7.73578 10.7038 7.72853 10.8852 7.72732C13.6186 7.7249 16.3521 7.7249 19.0856 7.7249C19.1063 7.7249 19.1258 7.7249 19.1465 7.7249C19.8685 7.73941 20.2618 8.01141 20.2484 8.48408C20.235 8.93499 19.8563 9.19853 19.1684 9.20216C17.7706 9.21062 16.374 9.20457 14.9762 9.20578Z"/>
<path d="M8.52552 11.522C7.91552 11.4301 7.33838 11.2452 6.77099 11.0348C5.58263 10.5924 4.51847 9.94803 3.58946 9.08731C3.25341 8.77542 3.11217 8.40671 3.44091 8.02833C3.76601 7.65478 4.15807 7.70798 4.5136 8.01503C5.90651 9.22391 7.50885 9.97946 9.34252 10.2345C9.75163 10.2914 9.7565 10.4981 9.56168 10.7701C9.30112 11.1303 9.01986 11.4761 8.52552 11.522Z"/>
<path d="M26.7186 8.46233C26.7247 8.75488 26.5518 8.94951 26.3533 9.12842C25.0347 10.3143 23.5005 11.0856 21.7679 11.47C21.2237 11.5909 20.4834 11.1303 20.336 10.6117C20.2386 10.2684 20.4822 10.2648 20.7074 10.2225C21.7034 10.0375 22.6787 9.7921 23.5882 9.32426C24.2773 8.97126 24.8983 8.53002 25.4718 8.01625C25.7129 7.80107 25.9893 7.6959 26.307 7.8458C26.5664 7.96789 26.7064 8.17582 26.7186 8.46233Z"/>
<path d="M6.46781 23.8864C6.47877 19.2866 10.3653 15.4642 15.0043 15.4895C19.7139 15.5149 23.531 19.312 23.5249 23.965C23.5188 28.5551 19.6298 32.4175 15.0176 32.4127C10.3178 32.4066 6.45563 28.5563 6.46781 23.8864ZM15.0067 30.9366C18.9176 30.9403 22.0516 27.8346 22.0516 23.9565C22.0516 20.0325 18.9346 16.9354 14.986 16.9366C11.0715 16.9378 7.95447 20.0265 7.9423 23.9166C7.9289 27.8322 11.0496 30.933 15.0067 30.9366Z"/>
<path fill-rule="evenodd" clip-rule="evenodd" d="M9.13309 23.9783C9.13309 20.6926 11.718 18.1334 15.0335 18.1334C18.3307 18.1346 20.9083 20.7131 20.9047 24.0073C20.8998 27.2785 18.299 29.8305 14.9738 29.8257C11.7156 29.8208 9.13309 27.2362 9.13309 23.9783ZM13.2729 24.1655L14.8848 26.9599H15.7548L14.1258 24.2925C14.5806 24.2304 14.9445 24.0865 15.2175 23.8607C15.4961 23.6292 15.6553 23.3074 15.6951 22.8953H16.8038V22.3534H15.678C15.6553 22.1558 15.6013 21.9836 15.516 21.8368C15.4307 21.69 15.3226 21.563 15.1919 21.4558H16.8038V20.9138H13.2729V21.4558H13.4605C13.7505 21.4558 13.995 21.4868 14.194 21.5489C14.3987 21.611 14.5607 21.7098 14.6801 21.8453C14.7995 21.9751 14.8791 22.1445 14.9189 22.3534H13.2729V22.8953H14.9275C14.9047 23.1211 14.8337 23.2989 14.7142 23.4288C14.5949 23.5586 14.4299 23.6518 14.2196 23.7082C14.0149 23.7647 13.7619 23.7929 13.4605 23.7929H13.2729V24.1655Z"/>
</mask>
<path d="M15.0116 10.2889C16.1074 10.2877 17.202 10.2974 18.2966 10.2841C18.7276 10.2793 19.0064 10.3856 19.1574 10.845C19.4399 11.6997 20.1242 12.2195 20.8839 12.6342C22.3049 13.4103 23.7453 14.1501 24.9872 15.2127C27.661 17.5023 29.5129 20.2683 29.9099 23.8199C30.4931 29.0278 28.2649 33.4378 22.6799 35.1967C19.1501 36.3089 15.5266 36.4733 11.8568 36.0974C9.78571 35.8858 7.77427 35.4905 5.86876 34.6322C2.11131 32.9398 0.183884 29.9816 0.0134226 25.9573C-0.2167 20.5173 2.52894 16.673 6.95728 13.8285C7.70487 13.3486 8.51821 12.9702 9.28894 12.5266C10.0268 12.1023 10.6331 11.5401 10.8949 10.7072C11.0155 10.3228 11.287 10.2914 11.6011 10.2901C12.7396 10.2877 13.8756 10.2889 15.0116 10.2889ZM14.4296 33.4898C19.3741 33.8839 24.4661 30.1388 24.6633 24.1826C24.8192 19.4619 21.4404 14.7195 15.4706 14.352C10.4578 14.0425 5.57289 17.6994 5.33303 23.6628C5.1163 29.0351 9.42044 33.3097 14.4296 33.4898Z" fill="black"/>
<path d="M9.49228 2.38407C9.71753 2.4155 10.1644 2.45539 10.5991 2.54606C11.4745 2.72739 12.2111 2.46748 12.8175 1.8582C13.2436 1.43026 13.5967 0.929781 14.0168 0.494584C14.6536 -0.165466 15.3306 -0.163048 15.971 0.490957C16.2669 0.793177 16.5201 1.1365 16.7917 1.4629C17.5161 2.33813 18.3891 2.7975 19.569 2.52067C19.9805 2.42396 20.4115 2.39495 20.8352 2.3756C21.5134 2.34417 21.7119 2.56419 21.6644 3.2327C21.5548 4.79095 20.5698 5.95752 18.9395 6.41448C18.6485 6.49668 18.2662 6.7723 18.0397 6.47855C17.8729 6.26095 18.2528 6.00467 18.355 5.74959C18.4744 5.451 18.6095 5.15724 18.7471 4.8659C18.9103 4.52137 18.7775 4.25904 18.4817 4.10189C18.1517 3.92781 17.8838 4.08617 17.7292 4.39323C17.4833 4.87799 17.2921 5.39418 16.9268 5.81124C16.7417 6.0228 16.5421 6.22468 16.3399 6.42052C16.1865 6.568 15.9954 6.64537 15.7823 6.56921C15.529 6.47855 15.5777 6.24523 15.5753 6.05302C15.5668 5.40869 15.5729 4.76314 15.5668 4.11881C15.5631 3.73922 15.4511 3.42249 14.9933 3.4237C14.5343 3.42491 14.4271 3.74406 14.4235 4.12244C14.4174 4.76677 14.4235 5.41231 14.4149 6.05665C14.4125 6.25007 14.4588 6.48217 14.2043 6.57042C13.99 6.64416 13.8086 6.55591 13.6454 6.41931C13.0403 5.91279 12.6458 5.26966 12.3548 4.54555C12.1466 4.02814 11.7558 3.88308 11.4161 4.1587C11.192 4.34124 11.1153 4.56247 11.2359 4.85502C11.4209 5.30351 11.6121 5.74596 11.8763 6.15578C11.9396 6.2549 12.0431 6.36249 11.9737 6.48459C11.886 6.63933 11.718 6.58855 11.5877 6.55833C9.97566 6.19325 8.56083 5.34703 8.34167 3.36447C8.25522 2.55935 8.43907 2.35868 9.49228 2.38407Z" fill="black"/>
<path d="M14.9762 9.20578C13.6393 9.20578 12.3037 9.2082 10.9668 9.20457C10.7659 9.20457 10.5577 9.20336 10.3641 9.15864C9.99391 9.07401 9.74066 8.84795 9.74918 8.4466C9.7577 8.07548 9.99757 7.86271 10.3434 7.77809C10.5175 7.73578 10.7038 7.72853 10.8852 7.72732C13.6186 7.7249 16.3521 7.7249 19.0856 7.7249C19.1063 7.7249 19.1258 7.7249 19.1465 7.7249C19.8685 7.73941 20.2618 8.01141 20.2484 8.48408C20.235 8.93499 19.8563 9.19853 19.1684 9.20216C17.7706 9.21062 16.374 9.20457 14.9762 9.20578Z" fill="black"/>
<path d="M8.52552 11.522C7.91552 11.4301 7.33838 11.2452 6.77099 11.0348C5.58263 10.5924 4.51847 9.94803 3.58946 9.08731C3.25341 8.77542 3.11217 8.40671 3.44091 8.02833C3.76601 7.65478 4.15807 7.70798 4.5136 8.01503C5.90651 9.22391 7.50885 9.97946 9.34252 10.2345C9.75163 10.2914 9.7565 10.4981 9.56168 10.7701C9.30112 11.1303 9.01986 11.4761 8.52552 11.522Z" fill="black"/>
<path d="M26.7186 8.46233C26.7247 8.75488 26.5518 8.94951 26.3533 9.12842C25.0347 10.3143 23.5005 11.0856 21.7679 11.47C21.2237 11.5909 20.4834 11.1303 20.336 10.6117C20.2386 10.2684 20.4822 10.2648 20.7074 10.2225C21.7034 10.0375 22.6787 9.7921 23.5882 9.32426C24.2773 8.97126 24.8983 8.53002 25.4718 8.01625C25.7129 7.80107 25.9893 7.6959 26.307 7.8458C26.5664 7.96789 26.7064 8.17582 26.7186 8.46233Z" fill="black"/>
<path d="M6.46781 23.8864C6.47877 19.2866 10.3653 15.4642 15.0043 15.4895C19.7139 15.5149 23.531 19.312 23.5249 23.965C23.5188 28.5551 19.6298 32.4175 15.0176 32.4127C10.3178 32.4066 6.45563 28.5563 6.46781 23.8864ZM15.0067 30.9366C18.9176 30.9403 22.0516 27.8346 22.0516 23.9565C22.0516 20.0325 18.9346 16.9354 14.986 16.9366C11.0715 16.9378 7.95447 20.0265 7.9423 23.9166C7.9289 27.8322 11.0496 30.933 15.0067 30.9366Z" fill="black"/>
<path fill-rule="evenodd" clip-rule="evenodd" d="M9.13309 23.9783C9.13309 20.6926 11.718 18.1334 15.0335 18.1334C18.3307 18.1346 20.9083 20.7131 20.9047 24.0073C20.8998 27.2785 18.299 29.8305 14.9738 29.8257C11.7156 29.8208 9.13309 27.2362 9.13309 23.9783ZM13.2729 24.1655L14.8848 26.9599H15.7548L14.1258 24.2925C14.5806 24.2304 14.9445 24.0865 15.2175 23.8607C15.4961 23.6292 15.6553 23.3074 15.6951 22.8953H16.8038V22.3534H15.678C15.6553 22.1558 15.6013 21.9836 15.516 21.8368C15.4307 21.69 15.3226 21.563 15.1919 21.4558H16.8038V20.9138H13.2729V21.4558H13.4605C13.7505 21.4558 13.995 21.4868 14.194 21.5489C14.3987 21.611 14.5607 21.7098 14.6801 21.8453C14.7995 21.9751 14.8791 22.1445 14.9189 22.3534H13.2729V22.8953H14.9275C14.9047 23.1211 14.8337 23.2989 14.7142 23.4288C14.5949 23.5586 14.4299 23.6518 14.2196 23.7082C14.0149 23.7647 13.7619 23.7929 13.4605 23.7929H13.2729V24.1655Z" fill="black"/>
<path d="M15.0116 10.2889C16.1074 10.2877 17.202 10.2974 18.2966 10.2841C18.7276 10.2793 19.0064 10.3856 19.1574 10.845C19.4399 11.6997 20.1242 12.2195 20.8839 12.6342C22.3049 13.4103 23.7453 14.1501 24.9872 15.2127C27.661 17.5023 29.5129 20.2683 29.9099 23.8199C30.4931 29.0278 28.2649 33.4378 22.6799 35.1967C19.1501 36.3089 15.5266 36.4733 11.8568 36.0974C9.78571 35.8858 7.77427 35.4905 5.86876 34.6322C2.11131 32.9398 0.183884 29.9816 0.0134226 25.9573C-0.2167 20.5173 2.52894 16.673 6.95728 13.8285C7.70487 13.3486 8.51821 12.9702 9.28894 12.5266C10.0268 12.1023 10.6331 11.5401 10.8949 10.7072C11.0155 10.3228 11.287 10.2914 11.6011 10.2901C12.7396 10.2877 13.8756 10.2889 15.0116 10.2889ZM14.4296 33.4898C19.3741 33.8839 24.4661 30.1388 24.6633 24.1826C24.8192 19.4619 21.4404 14.7195 15.4706 14.352C10.4578 14.0425 5.57289 17.6994 5.33303 23.6628C5.1163 29.0351 9.42044 33.3097 14.4296 33.4898Z" stroke="#BC9E9E" stroke-width="2" mask="url(#path-1-inside-1_163_592)"/>
<path d="M9.49228 2.38407C9.71753 2.4155 10.1644 2.45539 10.5991 2.54606C11.4745 2.72739 12.2111 2.46748 12.8175 1.8582C13.2436 1.43026 13.5967 0.929781 14.0168 0.494584C14.6536 -0.165466 15.3306 -0.163048 15.971 0.490957C16.2669 0.793177 16.5201 1.1365 16.7917 1.4629C17.5161 2.33813 18.3891 2.7975 19.569 2.52067C19.9805 2.42396 20.4115 2.39495 20.8352 2.3756C21.5134 2.34417 21.7119 2.56419 21.6644 3.2327C21.5548 4.79095 20.5698 5.95752 18.9395 6.41448C18.6485 6.49668 18.2662 6.7723 18.0397 6.47855C17.8729 6.26095 18.2528 6.00467 18.355 5.74959C18.4744 5.451 18.6095 5.15724 18.7471 4.8659C18.9103 4.52137 18.7775 4.25904 18.4817 4.10189C18.1517 3.92781 17.8838 4.08617 17.7292 4.39323C17.4833 4.87799 17.2921 5.39418 16.9268 5.81124C16.7417 6.0228 16.5421 6.22468 16.3399 6.42052C16.1865 6.568 15.9954 6.64537 15.7823 6.56921C15.529 6.47855 15.5777 6.24523 15.5753 6.05302C15.5668 5.40869 15.5729 4.76314 15.5668 4.11881C15.5631 3.73922 15.4511 3.42249 14.9933 3.4237C14.5343 3.42491 14.4271 3.74406 14.4235 4.12244C14.4174 4.76677 14.4235 5.41231 14.4149 6.05665C14.4125 6.25007 14.4588 6.48217 14.2043 6.57042C13.99 6.64416 13.8086 6.55591 13.6454 6.41931C13.0403 5.91279 12.6458 5.26966 12.3548 4.54555C12.1466 4.02814 11.7558 3.88308 11.4161 4.1587C11.192 4.34124 11.1153 4.56247 11.2359 4.85502C11.4209 5.30351 11.6121 5.74596 11.8763 6.15578C11.9396 6.2549 12.0431 6.36249 11.9737 6.48459C11.886 6.63933 11.718 6.58855 11.5877 6.55833C9.97566 6.19325 8.56083 5.34703 8.34167 3.36447C8.25522 2.55935 8.43907 2.35868 9.49228 2.38407Z" stroke="#BC9E9E" stroke-width="2" mask="url(#path-1-inside-1_163_592)"/>
<path d="M14.9762 9.20578C13.6393 9.20578 12.3037 9.2082 10.9668 9.20457C10.7659 9.20457 10.5577 9.20336 10.3641 9.15864C9.99391 9.07401 9.74066 8.84795 9.74918 8.4466C9.7577 8.07548 9.99757 7.86271 10.3434 7.77809C10.5175 7.73578 10.7038 7.72853 10.8852 7.72732C13.6186 7.7249 16.3521 7.7249 19.0856 7.7249C19.1063 7.7249 19.1258 7.7249 19.1465 7.7249C19.8685 7.73941 20.2618 8.01141 20.2484 8.48408C20.235 8.93499 19.8563 9.19853 19.1684 9.20216C17.7706 9.21062 16.374 9.20457 14.9762 9.20578Z" stroke="#BC9E9E" stroke-width="2" mask="url(#path-1-inside-1_163_592)"/>
<path d="M8.52552 11.522C7.91552 11.4301 7.33838 11.2452 6.77099 11.0348C5.58263 10.5924 4.51847 9.94803 3.58946 9.08731C3.25341 8.77542 3.11217 8.40671 3.44091 8.02833C3.76601 7.65478 4.15807 7.70798 4.5136 8.01503C5.90651 9.22391 7.50885 9.97946 9.34252 10.2345C9.75163 10.2914 9.7565 10.4981 9.56168 10.7701C9.30112 11.1303 9.01986 11.4761 8.52552 11.522Z" stroke="#BC9E9E" stroke-width="2" mask="url(#path-1-inside-1_163_592)"/>
<path d="M26.7186 8.46233C26.7247 8.75488 26.5518 8.94951 26.3533 9.12842C25.0347 10.3143 23.5005 11.0856 21.7679 11.47C21.2237 11.5909 20.4834 11.1303 20.336 10.6117C20.2386 10.2684 20.4822 10.2648 20.7074 10.2225C21.7034 10.0375 22.6787 9.7921 23.5882 9.32426C24.2773 8.97126 24.8983 8.53002 25.4718 8.01625C25.7129 7.80107 25.9893 7.6959 26.307 7.8458C26.5664 7.96789 26.7064 8.17582 26.7186 8.46233Z" stroke="#BC9E9E" stroke-width="2" mask="url(#path-1-inside-1_163_592)"/>
<path d="M6.46781 23.8864C6.47877 19.2866 10.3653 15.4642 15.0043 15.4895C19.7139 15.5149 23.531 19.312 23.5249 23.965C23.5188 28.5551 19.6298 32.4175 15.0176 32.4127C10.3178 32.4066 6.45563 28.5563 6.46781 23.8864ZM15.0067 30.9366C18.9176 30.9403 22.0516 27.8346 22.0516 23.9565C22.0516 20.0325 18.9346 16.9354 14.986 16.9366C11.0715 16.9378 7.95447 20.0265 7.9423 23.9166C7.9289 27.8322 11.0496 30.933 15.0067 30.9366Z" stroke="#BC9E9E" stroke-width="2" mask="url(#path-1-inside-1_163_592)"/>
<path fill-rule="evenodd" clip-rule="evenodd" d="M9.13309 23.9783C9.13309 20.6926 11.718 18.1334 15.0335 18.1334C18.3307 18.1346 20.9083 20.7131 20.9047 24.0073C20.8998 27.2785 18.299 29.8305 14.9738 29.8257C11.7156 29.8208 9.13309 27.2362 9.13309 23.9783ZM13.2729 24.1655L14.8848 26.9599H15.7548L14.1258 24.2925C14.5806 24.2304 14.9445 24.0865 15.2175 23.8607C15.4961 23.6292 15.6553 23.3074 15.6951 22.8953H16.8038V22.3534H15.678C15.6553 22.1558 15.6013 21.9836 15.516 21.8368C15.4307 21.69 15.3226 21.563 15.1919 21.4558H16.8038V20.9138H13.2729V21.4558H13.4605C13.7505 21.4558 13.995 21.4868 14.194 21.5489C14.3987 21.611 14.5607 21.7098 14.6801 21.8453C14.7995 21.9751 14.8791 22.1445 14.9189 22.3534H13.2729V22.8953H14.9275C14.9047 23.1211 14.8337 23.2989 14.7142 23.4288C14.5949 23.5586 14.4299 23.6518 14.2196 23.7082C14.0149 23.7647 13.7619 23.7929 13.4605 23.7929H13.2729V24.1655Z" stroke="#BC9E9E" stroke-width="2" mask="url(#path-1-inside-1_163_592)"/>
</svg>
