<svg width="30" height="28" viewBox="0 0 30 28" fill="none" xmlns="http://www.w3.org/2000/svg">
<mask id="path-1-inside-1_123_1511" fill="white">
<path d="M10.9093 2.30059C9.94679 3.25824 9.99467 4.47681 10.4325 5.75595C11.0119 5.05726 11.6422 4.52078 12.4025 4.1299C12.8911 3.87681 13.281 3.90906 13.7461 4.21687C15.293 5.24 17.0129 5.76865 18.8676 5.84586C18.8955 5.84702 18.9245 5.85007 18.9539 5.85316C19.0976 5.86827 19.2505 5.88435 19.3259 5.6856C19.6963 4.71036 19.9025 3.71166 19.5761 2.68951C18.978 0.81623 16.3855 -0.420899 14.3129 0.133172C12.9458 0.498642 11.8689 1.34587 10.9093 2.30059Z"/>
<path d="M3.31281 12.5779C3.31027 12.3625 3.30768 12.1426 3.26766 11.9142C1.78232 12.4126 0.762133 13.3712 0.287216 14.8409C-0.131024 16.1377 -0.00887416 17.494 0.133796 18.8113C0.253991 19.9243 1.33966 20.7657 2.46832 20.7999C3.01806 20.8167 3.56845 20.8158 4.11892 20.815C4.52933 20.8143 4.93979 20.8137 5.35006 20.8204C5.5758 20.8243 5.67938 20.7325 5.71651 20.5311C5.81038 20.0245 5.95811 19.5288 6.10593 19.0327C6.39207 18.0725 6.67856 17.1111 6.57547 16.0673L6.57445 16.0568C6.54111 15.7135 6.53162 15.6158 6.1582 15.608C4.76277 15.5797 3.66245 14.6172 3.36733 13.2618C3.31821 13.0359 3.31554 12.8095 3.31281 12.5779Z"/>
<path fill-rule="evenodd" clip-rule="evenodd" d="M12.1592 16.6204C11.7272 16.3458 11.2201 16.2716 10.8272 16.2852C9.27057 16.2911 8.08621 17.153 7.61227 18.5338C7.14615 19.8872 6.8266 21.2777 6.65169 22.6956C6.52465 23.7285 6.46797 24.7673 6.8012 25.7855C7.29077 27.2826 8.71259 27.7888 10.0211 26.92C10.5145 26.5917 10.9211 26.1705 11.2592 25.6878C11.4145 25.465 11.5895 25.3829 11.864 25.3839C13.9797 25.3956 16.0963 25.3946 18.2119 25.3849C18.466 25.3829 18.6282 25.4572 18.7787 25.6644C19.152 26.1803 19.5839 26.6416 20.137 26.9767C21.3956 27.7399 22.7539 27.2543 23.2386 25.8647C23.434 25.3038 23.5171 24.7165 23.4995 24.138C23.4389 22.0966 23.0686 20.1012 22.3005 18.2064C21.6448 16.5911 19.7334 15.7937 18.1572 16.5286C17.4487 16.8589 16.7705 16.8999 16.0455 16.8999C15.7835 16.8999 15.5215 16.8989 15.2595 16.8979C14.6264 16.8955 13.9933 16.893 13.3601 16.9048C12.9292 16.9126 12.5403 16.8628 12.1592 16.6204ZM11.7761 21.9637C11.7839 22.4895 11.5357 22.7552 11.1233 22.7572C10.6924 22.7601 10.4471 22.4914 10.4637 21.9237C10.4754 21.5455 10.3513 21.4575 9.99662 21.4722C9.48555 21.4927 9.18262 21.2367 9.16699 20.8497C9.15037 20.4383 9.44158 20.1803 10.0005 20.1989C10.3738 20.2116 10.4696 20.0895 10.4618 19.7299C10.45 19.1826 10.7149 18.8719 11.1145 18.8689C11.5152 18.865 11.7947 19.1777 11.7741 19.7211C11.7595 20.1276 11.9109 20.2087 12.2774 20.1989C12.7963 20.1842 13.0826 20.4442 13.0719 20.8419C13.0611 21.2289 12.7543 21.5005 12.25 21.4702C11.8445 21.4458 11.7712 21.6012 11.7761 21.9637ZM19.5888 19.508C19.5985 19.8569 19.3054 20.1608 18.9516 20.1696C18.5979 20.1784 18.294 19.8891 18.2852 19.5373C18.2774 19.1953 18.5803 18.8777 18.9223 18.868C19.2575 18.8582 19.579 19.167 19.5888 19.508ZM17.606 20.1979C17.9881 20.1803 18.2578 20.4383 18.2617 20.8175C18.2656 21.1927 17.993 21.479 17.6324 21.4781C17.2855 21.4771 16.964 21.1634 16.9894 20.8175C17.0158 20.4471 17.2161 20.2165 17.606 20.1979ZM20.2494 20.1989C20.6187 20.194 20.9031 20.4911 20.8894 20.8478C20.8767 21.1937 20.5533 21.4937 20.2103 21.4761C19.8468 21.4585 19.5888 21.1663 19.6142 20.7872C19.6406 20.3973 19.8682 20.2048 20.2494 20.1989ZM19.5849 22.1093C19.6249 22.4552 19.3064 22.7552 18.9428 22.7582C18.5784 22.7611 18.2754 22.4709 18.2803 22.121C18.2852 21.7829 18.6135 21.4644 18.9546 21.4849C19.3396 21.5093 19.5438 21.7517 19.5849 22.1093Z"/>
<path d="M26.7673 11.9543C28.365 12.2602 29.8904 14.0719 29.9695 15.7869C30.0096 16.6644 30.0076 17.5458 29.9783 18.4233C29.9353 19.6849 28.8887 20.7491 27.6379 20.796C27.0563 20.8175 26.4737 20.8165 25.8909 20.8155C25.4964 20.8148 25.1018 20.8141 24.7073 20.8204C24.4826 20.8243 24.3809 20.7344 24.3379 20.5331C24.2267 20.0048 24.0701 19.4884 23.9136 18.9725L23.9136 18.9723L23.9134 18.9718C23.7924 18.5728 23.6715 18.1741 23.5718 17.7706C23.4547 17.2953 23.4621 16.7882 23.4694 16.2834V16.2825C23.4719 16.1141 23.4744 15.9457 23.4722 15.779C23.4692 15.5684 23.6104 15.592 23.7363 15.613C23.7762 15.6196 23.8146 15.6261 23.8464 15.6246C25.1539 15.5641 26.1995 14.7989 26.608 13.5931C26.7465 13.1871 26.7522 12.7675 26.7579 12.3473C26.7597 12.2162 26.7614 12.0851 26.7673 11.9543Z"/>
<path d="M14.9588 11.7032C13.691 11.8166 12.9207 10.9705 12.1552 10.1295C12.1295 10.1013 12.1038 10.073 12.0781 10.0449C11.5259 9.43998 11.2396 8.70317 11.1351 7.89601C11.0207 7.01653 12.0018 5.5908 12.8657 5.36214C13.0178 5.32169 13.1241 5.3865 13.2335 5.4533C13.2457 5.46072 13.2579 5.46817 13.2702 5.4755C14.9149 6.45171 16.6816 7.04096 18.6008 7.11816C18.894 7.12989 18.9468 7.25594 18.9409 7.51002C18.9262 8.10318 18.8383 8.69046 18.5334 9.19372C17.8621 10.3019 17.092 11.323 15.7298 11.6563L15.7232 11.6579L15.723 11.658C15.647 11.677 15.5692 11.6964 15.4914 11.7002C15.3751 11.7058 15.2593 11.7049 15.1288 11.704H15.1279C15.0744 11.7036 15.0184 11.7032 14.9588 11.7032Z"/>
<path d="M20.9793 2.93774C21.0125 3.69897 21.0409 4.46118 20.8474 5.27323C20.9025 5.24756 20.9505 5.22598 20.9938 5.20655C21.0757 5.16975 21.1404 5.14066 21.2031 5.10613C21.8178 4.76998 22.3523 4.74847 22.9923 5.19213C24.2734 6.08039 25.7607 6.43121 27.3125 6.51329C27.5734 6.52697 27.7269 6.46052 27.8216 6.19082C28.5174 4.22079 27.7493 2.46086 25.8194 1.63904C24.2647 0.976504 22.2516 1.41526 21.0595 2.67194C20.9803 2.755 20.9754 2.84002 20.9793 2.93774Z"/>
<path d="M6.23931 11.7061C4.68069 11.9572 2.6061 9.61196 2.67157 8.02011C2.69698 7.40936 3.81294 6.20936 4.39925 6.19569C4.49093 6.19389 4.59005 6.25491 4.6776 6.30883L4.6909 6.31701L4.70023 6.32272C6.16798 7.22077 7.76569 7.69275 9.47774 7.80122C9.50582 7.80304 9.53642 7.80059 9.56736 7.79812C9.68609 7.78863 9.81005 7.77874 9.8178 8.00741C9.86471 9.3061 8.32953 11.3113 7.0367 11.6279C6.76602 11.6944 6.49534 11.7217 6.23931 11.7061Z"/>
<path d="M20.2611 7.99275C20.177 9.58264 22.2526 11.967 23.8318 11.7256C23.8954 11.7197 23.9593 11.7155 24.0233 11.7113L24.0246 11.7112L24.025 11.7111C24.1708 11.7015 24.3169 11.6919 24.4591 11.6621C25.8057 11.3895 27.1493 9.78492 27.3741 8.22532C27.4171 7.92532 27.4063 7.80415 27.0467 7.78558C25.3503 7.70057 23.7673 7.22076 22.3132 6.33444C22.2923 6.32168 22.272 6.3079 22.2516 6.29411C22.1692 6.2382 22.0868 6.18236 21.9692 6.19568C21.3819 6.26311 20.2924 7.40252 20.2611 7.99275Z"/>
<path d="M9.26178 6.43609C8.33539 6.4527 7.50673 6.18984 6.69175 5.87421C6.12986 5.65629 5.59143 5.38365 5.10869 5.02404C4.78524 4.78268 4.4784 4.75922 4.11 4.89994C3.51 5.12763 2.96082 5.43153 2.49665 5.87225C2.24845 6.10873 2.18004 6.04131 2.11555 5.7374C1.82043 4.35955 2.28362 3.32959 3.52564 2.63089C3.69372 2.5361 3.84616 2.412 3.99469 2.2879C5.41651 1.10354 7.43833 1.00093 8.9305 2.02699C9.18849 2.20484 9.29402 2.34458 9.15721 2.68855C8.71943 3.78887 8.78881 4.91167 9.13474 6.02665C9.17187 6.14978 9.20998 6.27192 9.26178 6.43609Z"/>
<path d="M11.4409 11.3182C9.61943 11.7862 7.90445 13.9791 7.91911 15.9071C7.97531 15.8705 8.02563 15.8371 8.07225 15.8062C8.16908 15.7419 8.24999 15.6881 8.33442 15.6393C9.67122 14.8644 11.0754 14.71 12.4836 15.353C13.0603 15.6168 13.6175 15.6116 14.2434 15.6056C14.3036 15.6051 14.3646 15.6045 14.4262 15.6041C13.0699 15.1585 12.2813 14.4432 11.9246 13.3595C11.7626 12.8683 11.7755 12.3604 11.7883 11.8552C11.7903 11.7754 11.7924 11.6957 11.7937 11.6162C11.7986 11.3348 11.7331 11.2429 11.4409 11.3182Z"/>
<path d="M15.5989 15.5885C17.3911 15.0901 18.2598 13.9253 18.2686 12.1253C18.2735 11.1247 18.2793 11.1129 19.1793 11.5507C20.8298 12.354 21.8011 13.6781 22.1314 15.4771C22.1331 15.4863 22.1349 15.4955 22.1366 15.5047C22.1583 15.6187 22.1812 15.7395 22.108 15.8777C21.4337 15.4448 20.7292 15.1175 19.92 15.0041C19.1344 14.8947 18.3751 14.966 17.6871 15.3022C17.0373 15.6207 16.3904 15.651 15.5989 15.5885Z"/>
<path d="M16.8389 12.7038C15.6331 13.1152 14.4282 13.1172 13.1862 12.6911C13.2155 13.597 14.1693 14.3953 15.0995 14.3318C16.0836 14.2644 16.9367 13.467 16.8389 12.7038Z"/>
<path d="M7.45494 12.9129C7.40468 13.0273 7.35359 13.1393 7.30304 13.2502C7.18943 13.4993 7.07853 13.7425 6.98589 13.9927C6.89913 14.2279 6.7155 14.2531 6.53603 14.2778C6.4992 14.2828 6.46254 14.2879 6.42693 14.2947C5.65202 14.4413 4.74616 13.7963 4.66798 13.0546C4.66622 13.038 4.66378 13.0205 4.66132 13.0029C4.64326 12.8735 4.62368 12.7333 4.85756 12.8133C5.65339 13.0846 6.4629 13.0074 7.28368 12.9292L7.28484 12.929C7.34148 12.9236 7.39819 12.9182 7.45494 12.9129Z"/>
<path d="M22.6941 12.9225C22.6616 12.9193 22.6291 12.9161 22.5966 12.9129C22.6501 13.03 22.7033 13.1449 22.756 13.2586C22.8531 13.4684 22.9483 13.6741 23.0402 13.8813C23.0524 13.9097 23.0626 13.9401 23.0728 13.9706C23.1051 14.0675 23.1378 14.1655 23.2366 14.2019C23.7145 14.3778 24.1855 14.3572 24.6321 14.0944C25.0581 13.8432 25.3386 13.4895 25.3982 12.9833C25.4148 12.8387 25.3748 12.7556 25.2135 12.8103C24.3923 13.09 23.5566 13.0076 22.6941 12.9225Z"/>
</mask>
<path d="M10.9093 2.30059C9.94679 3.25824 9.99467 4.47681 10.4325 5.75595C11.0119 5.05726 11.6422 4.52078 12.4025 4.1299C12.8911 3.87681 13.281 3.90906 13.7461 4.21687C15.293 5.24 17.0129 5.76865 18.8676 5.84586C18.8955 5.84702 18.9245 5.85007 18.9539 5.85316C19.0976 5.86827 19.2505 5.88435 19.3259 5.6856C19.6963 4.71036 19.9025 3.71166 19.5761 2.68951C18.978 0.81623 16.3855 -0.420899 14.3129 0.133172C12.9458 0.498642 11.8689 1.34587 10.9093 2.30059Z" fill="black"/>
<path d="M3.31281 12.5779C3.31027 12.3625 3.30768 12.1426 3.26766 11.9142C1.78232 12.4126 0.762133 13.3712 0.287216 14.8409C-0.131024 16.1377 -0.00887416 17.494 0.133796 18.8113C0.253991 19.9243 1.33966 20.7657 2.46832 20.7999C3.01806 20.8167 3.56845 20.8158 4.11892 20.815C4.52933 20.8143 4.93979 20.8137 5.35006 20.8204C5.5758 20.8243 5.67938 20.7325 5.71651 20.5311C5.81038 20.0245 5.95811 19.5288 6.10593 19.0327C6.39207 18.0725 6.67856 17.1111 6.57547 16.0673L6.57445 16.0568C6.54111 15.7135 6.53162 15.6158 6.1582 15.608C4.76277 15.5797 3.66245 14.6172 3.36733 13.2618C3.31821 13.0359 3.31554 12.8095 3.31281 12.5779Z" fill="black"/>
<path fill-rule="evenodd" clip-rule="evenodd" d="M12.1592 16.6204C11.7272 16.3458 11.2201 16.2716 10.8272 16.2852C9.27057 16.2911 8.08621 17.153 7.61227 18.5338C7.14615 19.8872 6.8266 21.2777 6.65169 22.6956C6.52465 23.7285 6.46797 24.7673 6.8012 25.7855C7.29077 27.2826 8.71259 27.7888 10.0211 26.92C10.5145 26.5917 10.9211 26.1705 11.2592 25.6878C11.4145 25.465 11.5895 25.3829 11.864 25.3839C13.9797 25.3956 16.0963 25.3946 18.2119 25.3849C18.466 25.3829 18.6282 25.4572 18.7787 25.6644C19.152 26.1803 19.5839 26.6416 20.137 26.9767C21.3956 27.7399 22.7539 27.2543 23.2386 25.8647C23.434 25.3038 23.5171 24.7165 23.4995 24.138C23.4389 22.0966 23.0686 20.1012 22.3005 18.2064C21.6448 16.5911 19.7334 15.7937 18.1572 16.5286C17.4487 16.8589 16.7705 16.8999 16.0455 16.8999C15.7835 16.8999 15.5215 16.8989 15.2595 16.8979C14.6264 16.8955 13.9933 16.893 13.3601 16.9048C12.9292 16.9126 12.5403 16.8628 12.1592 16.6204ZM11.7761 21.9637C11.7839 22.4895 11.5357 22.7552 11.1233 22.7572C10.6924 22.7601 10.4471 22.4914 10.4637 21.9237C10.4754 21.5455 10.3513 21.4575 9.99662 21.4722C9.48555 21.4927 9.18262 21.2367 9.16699 20.8497C9.15037 20.4383 9.44158 20.1803 10.0005 20.1989C10.3738 20.2116 10.4696 20.0895 10.4618 19.7299C10.45 19.1826 10.7149 18.8719 11.1145 18.8689C11.5152 18.865 11.7947 19.1777 11.7741 19.7211C11.7595 20.1276 11.9109 20.2087 12.2774 20.1989C12.7963 20.1842 13.0826 20.4442 13.0719 20.8419C13.0611 21.2289 12.7543 21.5005 12.25 21.4702C11.8445 21.4458 11.7712 21.6012 11.7761 21.9637ZM19.5888 19.508C19.5985 19.8569 19.3054 20.1608 18.9516 20.1696C18.5979 20.1784 18.294 19.8891 18.2852 19.5373C18.2774 19.1953 18.5803 18.8777 18.9223 18.868C19.2575 18.8582 19.579 19.167 19.5888 19.508ZM17.606 20.1979C17.9881 20.1803 18.2578 20.4383 18.2617 20.8175C18.2656 21.1927 17.993 21.479 17.6324 21.4781C17.2855 21.4771 16.964 21.1634 16.9894 20.8175C17.0158 20.4471 17.2161 20.2165 17.606 20.1979ZM20.2494 20.1989C20.6187 20.194 20.9031 20.4911 20.8894 20.8478C20.8767 21.1937 20.5533 21.4937 20.2103 21.4761C19.8468 21.4585 19.5888 21.1663 19.6142 20.7872C19.6406 20.3973 19.8682 20.2048 20.2494 20.1989ZM19.5849 22.1093C19.6249 22.4552 19.3064 22.7552 18.9428 22.7582C18.5784 22.7611 18.2754 22.4709 18.2803 22.121C18.2852 21.7829 18.6135 21.4644 18.9546 21.4849C19.3396 21.5093 19.5438 21.7517 19.5849 22.1093Z" fill="black"/>
<path d="M26.7673 11.9543C28.365 12.2602 29.8904 14.0719 29.9695 15.7869C30.0096 16.6644 30.0076 17.5458 29.9783 18.4233C29.9353 19.6849 28.8887 20.7491 27.6379 20.796C27.0563 20.8175 26.4737 20.8165 25.8909 20.8155C25.4964 20.8148 25.1018 20.8141 24.7073 20.8204C24.4826 20.8243 24.3809 20.7344 24.3379 20.5331C24.2267 20.0048 24.0701 19.4884 23.9136 18.9725L23.9136 18.9723L23.9134 18.9718C23.7924 18.5728 23.6715 18.1741 23.5718 17.7706C23.4547 17.2953 23.4621 16.7882 23.4694 16.2834V16.2825C23.4719 16.1141 23.4744 15.9457 23.4722 15.779C23.4692 15.5684 23.6104 15.592 23.7363 15.613C23.7762 15.6196 23.8146 15.6261 23.8464 15.6246C25.1539 15.5641 26.1995 14.7989 26.608 13.5931C26.7465 13.1871 26.7522 12.7675 26.7579 12.3473C26.7597 12.2162 26.7614 12.0851 26.7673 11.9543Z" fill="black"/>
<path d="M14.9588 11.7032C13.691 11.8166 12.9207 10.9705 12.1552 10.1295C12.1295 10.1013 12.1038 10.073 12.0781 10.0449C11.5259 9.43998 11.2396 8.70317 11.1351 7.89601C11.0207 7.01653 12.0018 5.5908 12.8657 5.36214C13.0178 5.32169 13.1241 5.3865 13.2335 5.4533C13.2457 5.46072 13.2579 5.46817 13.2702 5.4755C14.9149 6.45171 16.6816 7.04096 18.6008 7.11816C18.894 7.12989 18.9468 7.25594 18.9409 7.51002C18.9262 8.10318 18.8383 8.69046 18.5334 9.19372C17.8621 10.3019 17.092 11.323 15.7298 11.6563L15.7232 11.6579L15.723 11.658C15.647 11.677 15.5692 11.6964 15.4914 11.7002C15.3751 11.7058 15.2593 11.7049 15.1288 11.704H15.1279C15.0744 11.7036 15.0184 11.7032 14.9588 11.7032Z" fill="black"/>
<path d="M20.9793 2.93774C21.0125 3.69897 21.0409 4.46118 20.8474 5.27323C20.9025 5.24756 20.9505 5.22598 20.9938 5.20655C21.0757 5.16975 21.1404 5.14066 21.2031 5.10613C21.8178 4.76998 22.3523 4.74847 22.9923 5.19213C24.2734 6.08039 25.7607 6.43121 27.3125 6.51329C27.5734 6.52697 27.7269 6.46052 27.8216 6.19082C28.5174 4.22079 27.7493 2.46086 25.8194 1.63904C24.2647 0.976504 22.2516 1.41526 21.0595 2.67194C20.9803 2.755 20.9754 2.84002 20.9793 2.93774Z" fill="black"/>
<path d="M6.23931 11.7061C4.68069 11.9572 2.6061 9.61196 2.67157 8.02011C2.69698 7.40936 3.81294 6.20936 4.39925 6.19569C4.49093 6.19389 4.59005 6.25491 4.6776 6.30883L4.6909 6.31701L4.70023 6.32272C6.16798 7.22077 7.76569 7.69275 9.47774 7.80122C9.50582 7.80304 9.53642 7.80059 9.56736 7.79812C9.68609 7.78863 9.81005 7.77874 9.8178 8.00741C9.86471 9.3061 8.32953 11.3113 7.0367 11.6279C6.76602 11.6944 6.49534 11.7217 6.23931 11.7061Z" fill="black"/>
<path d="M20.2611 7.99275C20.177 9.58264 22.2526 11.967 23.8318 11.7256C23.8954 11.7197 23.9593 11.7155 24.0233 11.7113L24.0246 11.7112L24.025 11.7111C24.1708 11.7015 24.3169 11.6919 24.4591 11.6621C25.8057 11.3895 27.1493 9.78492 27.3741 8.22532C27.4171 7.92532 27.4063 7.80415 27.0467 7.78558C25.3503 7.70057 23.7673 7.22076 22.3132 6.33444C22.2923 6.32168 22.272 6.3079 22.2516 6.29411C22.1692 6.2382 22.0868 6.18236 21.9692 6.19568C21.3819 6.26311 20.2924 7.40252 20.2611 7.99275Z" fill="black"/>
<path d="M9.26178 6.43609C8.33539 6.4527 7.50673 6.18984 6.69175 5.87421C6.12986 5.65629 5.59143 5.38365 5.10869 5.02404C4.78524 4.78268 4.4784 4.75922 4.11 4.89994C3.51 5.12763 2.96082 5.43153 2.49665 5.87225C2.24845 6.10873 2.18004 6.04131 2.11555 5.7374C1.82043 4.35955 2.28362 3.32959 3.52564 2.63089C3.69372 2.5361 3.84616 2.412 3.99469 2.2879C5.41651 1.10354 7.43833 1.00093 8.9305 2.02699C9.18849 2.20484 9.29402 2.34458 9.15721 2.68855C8.71943 3.78887 8.78881 4.91167 9.13474 6.02665C9.17187 6.14978 9.20998 6.27192 9.26178 6.43609Z" fill="black"/>
<path d="M11.4409 11.3182C9.61943 11.7862 7.90445 13.9791 7.91911 15.9071C7.97531 15.8705 8.02563 15.8371 8.07225 15.8062C8.16908 15.7419 8.24999 15.6881 8.33442 15.6393C9.67122 14.8644 11.0754 14.71 12.4836 15.353C13.0603 15.6168 13.6175 15.6116 14.2434 15.6056C14.3036 15.6051 14.3646 15.6045 14.4262 15.6041C13.0699 15.1585 12.2813 14.4432 11.9246 13.3595C11.7626 12.8683 11.7755 12.3604 11.7883 11.8552C11.7903 11.7754 11.7924 11.6957 11.7937 11.6162C11.7986 11.3348 11.7331 11.2429 11.4409 11.3182Z" fill="black"/>
<path d="M15.5989 15.5885C17.3911 15.0901 18.2598 13.9253 18.2686 12.1253C18.2735 11.1247 18.2793 11.1129 19.1793 11.5507C20.8298 12.354 21.8011 13.6781 22.1314 15.4771C22.1331 15.4863 22.1349 15.4955 22.1366 15.5047C22.1583 15.6187 22.1812 15.7395 22.108 15.8777C21.4337 15.4448 20.7292 15.1175 19.92 15.0041C19.1344 14.8947 18.3751 14.966 17.6871 15.3022C17.0373 15.6207 16.3904 15.651 15.5989 15.5885Z" fill="black"/>
<path d="M16.8389 12.7038C15.6331 13.1152 14.4282 13.1172 13.1862 12.6911C13.2155 13.597 14.1693 14.3953 15.0995 14.3318C16.0836 14.2644 16.9367 13.467 16.8389 12.7038Z" fill="black"/>
<path d="M7.45494 12.9129C7.40468 13.0273 7.35359 13.1393 7.30304 13.2502C7.18943 13.4993 7.07853 13.7425 6.98589 13.9927C6.89913 14.2279 6.7155 14.2531 6.53603 14.2778C6.4992 14.2828 6.46254 14.2879 6.42693 14.2947C5.65202 14.4413 4.74616 13.7963 4.66798 13.0546C4.66622 13.038 4.66378 13.0205 4.66132 13.0029C4.64326 12.8735 4.62368 12.7333 4.85756 12.8133C5.65339 13.0846 6.4629 13.0074 7.28368 12.9292L7.28484 12.929C7.34148 12.9236 7.39819 12.9182 7.45494 12.9129Z" fill="black"/>
<path d="M22.6941 12.9225C22.6616 12.9193 22.6291 12.9161 22.5966 12.9129C22.6501 13.03 22.7033 13.1449 22.756 13.2586C22.8531 13.4684 22.9483 13.6741 23.0402 13.8813C23.0524 13.9097 23.0626 13.9401 23.0728 13.9706C23.1051 14.0675 23.1378 14.1655 23.2366 14.2019C23.7145 14.3778 24.1855 14.3572 24.6321 14.0944C25.0581 13.8432 25.3386 13.4895 25.3982 12.9833C25.4148 12.8387 25.3748 12.7556 25.2135 12.8103C24.3923 13.09 23.5566 13.0076 22.6941 12.9225Z" fill="black"/>
<path d="M10.9093 2.30059C9.94679 3.25824 9.99467 4.47681 10.4325 5.75595C11.0119 5.05726 11.6422 4.52078 12.4025 4.1299C12.8911 3.87681 13.281 3.90906 13.7461 4.21687C15.293 5.24 17.0129 5.76865 18.8676 5.84586C18.8955 5.84702 18.9245 5.85007 18.9539 5.85316C19.0976 5.86827 19.2505 5.88435 19.3259 5.6856C19.6963 4.71036 19.9025 3.71166 19.5761 2.68951C18.978 0.81623 16.3855 -0.420899 14.3129 0.133172C12.9458 0.498642 11.8689 1.34587 10.9093 2.30059Z" stroke="#BC9E9E" stroke-width="2" mask="url(#path-1-inside-1_123_1511)"/>
<path d="M3.31281 12.5779C3.31027 12.3625 3.30768 12.1426 3.26766 11.9142C1.78232 12.4126 0.762133 13.3712 0.287216 14.8409C-0.131024 16.1377 -0.00887416 17.494 0.133796 18.8113C0.253991 19.9243 1.33966 20.7657 2.46832 20.7999C3.01806 20.8167 3.56845 20.8158 4.11892 20.815C4.52933 20.8143 4.93979 20.8137 5.35006 20.8204C5.5758 20.8243 5.67938 20.7325 5.71651 20.5311C5.81038 20.0245 5.95811 19.5288 6.10593 19.0327C6.39207 18.0725 6.67856 17.1111 6.57547 16.0673L6.57445 16.0568C6.54111 15.7135 6.53162 15.6158 6.1582 15.608C4.76277 15.5797 3.66245 14.6172 3.36733 13.2618C3.31821 13.0359 3.31554 12.8095 3.31281 12.5779Z" stroke="#BC9E9E" stroke-width="2" mask="url(#path-1-inside-1_123_1511)"/>
<path fill-rule="evenodd" clip-rule="evenodd" d="M12.1592 16.6204C11.7272 16.3458 11.2201 16.2716 10.8272 16.2852C9.27057 16.2911 8.08621 17.153 7.61227 18.5338C7.14615 19.8872 6.8266 21.2777 6.65169 22.6956C6.52465 23.7285 6.46797 24.7673 6.8012 25.7855C7.29077 27.2826 8.71259 27.7888 10.0211 26.92C10.5145 26.5917 10.9211 26.1705 11.2592 25.6878C11.4145 25.465 11.5895 25.3829 11.864 25.3839C13.9797 25.3956 16.0963 25.3946 18.2119 25.3849C18.466 25.3829 18.6282 25.4572 18.7787 25.6644C19.152 26.1803 19.5839 26.6416 20.137 26.9767C21.3956 27.7399 22.7539 27.2543 23.2386 25.8647C23.434 25.3038 23.5171 24.7165 23.4995 24.138C23.4389 22.0966 23.0686 20.1012 22.3005 18.2064C21.6448 16.5911 19.7334 15.7937 18.1572 16.5286C17.4487 16.8589 16.7705 16.8999 16.0455 16.8999C15.7835 16.8999 15.5215 16.8989 15.2595 16.8979C14.6264 16.8955 13.9933 16.893 13.3601 16.9048C12.9292 16.9126 12.5403 16.8628 12.1592 16.6204ZM11.7761 21.9637C11.7839 22.4895 11.5357 22.7552 11.1233 22.7572C10.6924 22.7601 10.4471 22.4914 10.4637 21.9237C10.4754 21.5455 10.3513 21.4575 9.99662 21.4722C9.48555 21.4927 9.18262 21.2367 9.16699 20.8497C9.15037 20.4383 9.44158 20.1803 10.0005 20.1989C10.3738 20.2116 10.4696 20.0895 10.4618 19.7299C10.45 19.1826 10.7149 18.8719 11.1145 18.8689C11.5152 18.865 11.7947 19.1777 11.7741 19.7211C11.7595 20.1276 11.9109 20.2087 12.2774 20.1989C12.7963 20.1842 13.0826 20.4442 13.0719 20.8419C13.0611 21.2289 12.7543 21.5005 12.25 21.4702C11.8445 21.4458 11.7712 21.6012 11.7761 21.9637ZM19.5888 19.508C19.5985 19.8569 19.3054 20.1608 18.9516 20.1696C18.5979 20.1784 18.294 19.8891 18.2852 19.5373C18.2774 19.1953 18.5803 18.8777 18.9223 18.868C19.2575 18.8582 19.579 19.167 19.5888 19.508ZM17.606 20.1979C17.9881 20.1803 18.2578 20.4383 18.2617 20.8175C18.2656 21.1927 17.993 21.479 17.6324 21.4781C17.2855 21.4771 16.964 21.1634 16.9894 20.8175C17.0158 20.4471 17.2161 20.2165 17.606 20.1979ZM20.2494 20.1989C20.6187 20.194 20.9031 20.4911 20.8894 20.8478C20.8767 21.1937 20.5533 21.4937 20.2103 21.4761C19.8468 21.4585 19.5888 21.1663 19.6142 20.7872C19.6406 20.3973 19.8682 20.2048 20.2494 20.1989ZM19.5849 22.1093C19.6249 22.4552 19.3064 22.7552 18.9428 22.7582C18.5784 22.7611 18.2754 22.4709 18.2803 22.121C18.2852 21.7829 18.6135 21.4644 18.9546 21.4849C19.3396 21.5093 19.5438 21.7517 19.5849 22.1093Z" stroke="#BC9E9E" stroke-width="2" mask="url(#path-1-inside-1_123_1511)"/>
<path d="M26.7673 11.9543C28.365 12.2602 29.8904 14.0719 29.9695 15.7869C30.0096 16.6644 30.0076 17.5458 29.9783 18.4233C29.9353 19.6849 28.8887 20.7491 27.6379 20.796C27.0563 20.8175 26.4737 20.8165 25.8909 20.8155C25.4964 20.8148 25.1018 20.8141 24.7073 20.8204C24.4826 20.8243 24.3809 20.7344 24.3379 20.5331C24.2267 20.0048 24.0701 19.4884 23.9136 18.9725L23.9136 18.9723L23.9134 18.9718C23.7924 18.5728 23.6715 18.1741 23.5718 17.7706C23.4547 17.2953 23.4621 16.7882 23.4694 16.2834V16.2825C23.4719 16.1141 23.4744 15.9457 23.4722 15.779C23.4692 15.5684 23.6104 15.592 23.7363 15.613C23.7762 15.6196 23.8146 15.6261 23.8464 15.6246C25.1539 15.5641 26.1995 14.7989 26.608 13.5931C26.7465 13.1871 26.7522 12.7675 26.7579 12.3473C26.7597 12.2162 26.7614 12.0851 26.7673 11.9543Z" stroke="#BC9E9E" stroke-width="2" mask="url(#path-1-inside-1_123_1511)"/>
<path d="M14.9588 11.7032C13.691 11.8166 12.9207 10.9705 12.1552 10.1295C12.1295 10.1013 12.1038 10.073 12.0781 10.0449C11.5259 9.43998 11.2396 8.70317 11.1351 7.89601C11.0207 7.01653 12.0018 5.5908 12.8657 5.36214C13.0178 5.32169 13.1241 5.3865 13.2335 5.4533C13.2457 5.46072 13.2579 5.46817 13.2702 5.4755C14.9149 6.45171 16.6816 7.04096 18.6008 7.11816C18.894 7.12989 18.9468 7.25594 18.9409 7.51002C18.9262 8.10318 18.8383 8.69046 18.5334 9.19372C17.8621 10.3019 17.092 11.323 15.7298 11.6563L15.7232 11.6579L15.723 11.658C15.647 11.677 15.5692 11.6964 15.4914 11.7002C15.3751 11.7058 15.2593 11.7049 15.1288 11.704H15.1279C15.0744 11.7036 15.0184 11.7032 14.9588 11.7032Z" stroke="#BC9E9E" stroke-width="2" mask="url(#path-1-inside-1_123_1511)"/>
<path d="M20.9793 2.93774C21.0125 3.69897 21.0409 4.46118 20.8474 5.27323C20.9025 5.24756 20.9505 5.22598 20.9938 5.20655C21.0757 5.16975 21.1404 5.14066 21.2031 5.10613C21.8178 4.76998 22.3523 4.74847 22.9923 5.19213C24.2734 6.08039 25.7607 6.43121 27.3125 6.51329C27.5734 6.52697 27.7269 6.46052 27.8216 6.19082C28.5174 4.22079 27.7493 2.46086 25.8194 1.63904C24.2647 0.976504 22.2516 1.41526 21.0595 2.67194C20.9803 2.755 20.9754 2.84002 20.9793 2.93774Z" stroke="#BC9E9E" stroke-width="2" mask="url(#path-1-inside-1_123_1511)"/>
<path d="M6.23931 11.7061C4.68069 11.9572 2.6061 9.61196 2.67157 8.02011C2.69698 7.40936 3.81294 6.20936 4.39925 6.19569C4.49093 6.19389 4.59005 6.25491 4.6776 6.30883L4.6909 6.31701L4.70023 6.32272C6.16798 7.22077 7.76569 7.69275 9.47774 7.80122C9.50582 7.80304 9.53642 7.80059 9.56736 7.79812C9.68609 7.78863 9.81005 7.77874 9.8178 8.00741C9.86471 9.3061 8.32953 11.3113 7.0367 11.6279C6.76602 11.6944 6.49534 11.7217 6.23931 11.7061Z" stroke="#BC9E9E" stroke-width="2" mask="url(#path-1-inside-1_123_1511)"/>
<path d="M20.2611 7.99275C20.177 9.58264 22.2526 11.967 23.8318 11.7256C23.8954 11.7197 23.9593 11.7155 24.0233 11.7113L24.0246 11.7112L24.025 11.7111C24.1708 11.7015 24.3169 11.6919 24.4591 11.6621C25.8057 11.3895 27.1493 9.78492 27.3741 8.22532C27.4171 7.92532 27.4063 7.80415 27.0467 7.78558C25.3503 7.70057 23.7673 7.22076 22.3132 6.33444C22.2923 6.32168 22.272 6.3079 22.2516 6.29411C22.1692 6.2382 22.0868 6.18236 21.9692 6.19568C21.3819 6.26311 20.2924 7.40252 20.2611 7.99275Z" stroke="#BC9E9E" stroke-width="2" mask="url(#path-1-inside-1_123_1511)"/>
<path d="M9.26178 6.43609C8.33539 6.4527 7.50673 6.18984 6.69175 5.87421C6.12986 5.65629 5.59143 5.38365 5.10869 5.02404C4.78524 4.78268 4.4784 4.75922 4.11 4.89994C3.51 5.12763 2.96082 5.43153 2.49665 5.87225C2.24845 6.10873 2.18004 6.04131 2.11555 5.7374C1.82043 4.35955 2.28362 3.32959 3.52564 2.63089C3.69372 2.5361 3.84616 2.412 3.99469 2.2879C5.41651 1.10354 7.43833 1.00093 8.9305 2.02699C9.18849 2.20484 9.29402 2.34458 9.15721 2.68855C8.71943 3.78887 8.78881 4.91167 9.13474 6.02665C9.17187 6.14978 9.20998 6.27192 9.26178 6.43609Z" stroke="#BC9E9E" stroke-width="2" mask="url(#path-1-inside-1_123_1511)"/>
<path d="M11.4409 11.3182C9.61943 11.7862 7.90445 13.9791 7.91911 15.9071C7.97531 15.8705 8.02563 15.8371 8.07225 15.8062C8.16908 15.7419 8.24999 15.6881 8.33442 15.6393C9.67122 14.8644 11.0754 14.71 12.4836 15.353C13.0603 15.6168 13.6175 15.6116 14.2434 15.6056C14.3036 15.6051 14.3646 15.6045 14.4262 15.6041C13.0699 15.1585 12.2813 14.4432 11.9246 13.3595C11.7626 12.8683 11.7755 12.3604 11.7883 11.8552C11.7903 11.7754 11.7924 11.6957 11.7937 11.6162C11.7986 11.3348 11.7331 11.2429 11.4409 11.3182Z" stroke="#BC9E9E" stroke-width="2" mask="url(#path-1-inside-1_123_1511)"/>
<path d="M15.5989 15.5885C17.3911 15.0901 18.2598 13.9253 18.2686 12.1253C18.2735 11.1247 18.2793 11.1129 19.1793 11.5507C20.8298 12.354 21.8011 13.6781 22.1314 15.4771C22.1331 15.4863 22.1349 15.4955 22.1366 15.5047C22.1583 15.6187 22.1812 15.7395 22.108 15.8777C21.4337 15.4448 20.7292 15.1175 19.92 15.0041C19.1344 14.8947 18.3751 14.966 17.6871 15.3022C17.0373 15.6207 16.3904 15.651 15.5989 15.5885Z" stroke="#BC9E9E" stroke-width="2" mask="url(#path-1-inside-1_123_1511)"/>
<path d="M16.8389 12.7038C15.6331 13.1152 14.4282 13.1172 13.1862 12.6911C13.2155 13.597 14.1693 14.3953 15.0995 14.3318C16.0836 14.2644 16.9367 13.467 16.8389 12.7038Z" stroke="#BC9E9E" stroke-width="2" mask="url(#path-1-inside-1_123_1511)"/>
<path d="M7.45494 12.9129C7.40468 13.0273 7.35359 13.1393 7.30304 13.2502C7.18943 13.4993 7.07853 13.7425 6.98589 13.9927C6.89913 14.2279 6.7155 14.2531 6.53603 14.2778C6.4992 14.2828 6.46254 14.2879 6.42693 14.2947C5.65202 14.4413 4.74616 13.7963 4.66798 13.0546C4.66622 13.038 4.66378 13.0205 4.66132 13.0029C4.64326 12.8735 4.62368 12.7333 4.85756 12.8133C5.65339 13.0846 6.4629 13.0074 7.28368 12.9292L7.28484 12.929C7.34148 12.9236 7.39819 12.9182 7.45494 12.9129Z" stroke="#BC9E9E" stroke-width="2" mask="url(#path-1-inside-1_123_1511)"/>
<path d="M22.6941 12.9225C22.6616 12.9193 22.6291 12.9161 22.5966 12.9129C22.6501 13.03 22.7033 13.1449 22.756 13.2586C22.8531 13.4684 22.9483 13.6741 23.0402 13.8813C23.0524 13.9097 23.0626 13.9401 23.0728 13.9706C23.1051 14.0675 23.1378 14.1655 23.2366 14.2019C23.7145 14.3778 24.1855 14.3572 24.6321 14.0944C25.0581 13.8432 25.3386 13.4895 25.3982 12.9833C25.4148 12.8387 25.3748 12.7556 25.2135 12.8103C24.3923 13.09 23.5566 13.0076 22.6941 12.9225Z" stroke="#BC9E9E" stroke-width="2" mask="url(#path-1-inside-1_123_1511)"/>
</svg>
