<svg width="303" height="135" viewBox="0 0 303 135" fill="none" xmlns="http://www.w3.org/2000/svg">
<rect width="268" height="98" transform="translate(26 16)" fill="#F0E3C8"/>
<g filter="url(#filter0_d_1_10)">
<rect x="26" y="16" width="251" height="83" rx="41.5" fill="#0C8D30"/>
</g>
<path d="M65.86 65V50.9H66.86L76.3 63.54H75.86V50.9H77V65H76.02L66.58 52.36H67V65H65.86ZM84.8233 65.16C83.3033 65.16 82.0966 64.7067 81.2033 63.8C80.3233 62.8933 79.8833 61.6333 79.8833 60.02C79.8833 58.9533 80.0766 58.0333 80.4633 57.26C80.8633 56.4867 81.4166 55.8867 82.1233 55.46C82.8299 55.02 83.6499 54.8 84.5833 54.8C85.4766 54.8 86.2299 54.9933 86.8433 55.38C87.4566 55.7533 87.9299 56.2933 88.2633 57C88.5966 57.6933 88.7633 58.52 88.7633 59.48V60.04H80.7633V59.16H88.0033L87.6633 59.42C87.6633 58.2867 87.4033 57.4 86.8833 56.76C86.3633 56.1067 85.5899 55.78 84.5633 55.78C83.4699 55.78 82.6166 56.16 82.0033 56.92C81.3899 57.6667 81.0833 58.66 81.0833 59.9V60.04C81.0833 61.3733 81.4099 62.3867 82.0633 63.08C82.7299 63.7733 83.6566 64.12 84.8433 64.12C85.4566 64.12 86.0299 64.0267 86.5633 63.84C87.0966 63.6533 87.6099 63.3333 88.1033 62.88L88.6033 63.78C88.1766 64.22 87.6233 64.56 86.9433 64.8C86.2633 65.04 85.5566 65.16 84.8233 65.16ZM90.045 65L94.445 59.5V60.16L90.265 54.98H91.765L95.125 59.24H94.685L98.045 54.98H99.505L95.405 60.12V59.56L99.765 65H98.245L94.685 60.46H95.125L91.525 65H90.045ZM105.091 65.16C104.198 65.16 103.511 64.8933 103.031 64.36C102.565 63.8267 102.331 63.0067 102.331 61.9V55.96H100.331V54.98H102.331V52.18L103.551 51.78V54.98H106.511V55.96H103.551V61.72C103.551 62.56 103.685 63.1667 103.951 63.54C104.218 63.9133 104.645 64.1 105.231 64.1C105.498 64.1 105.731 64.0733 105.931 64.02C106.145 63.9667 106.325 63.9067 106.471 63.84V64.92C106.311 64.9867 106.105 65.04 105.851 65.08C105.598 65.1333 105.345 65.16 105.091 65.16Z" fill="white"/>
<rect x="186" y="36" width="71" height="43" rx="21.5" fill="#C4BC94"/>
<path d="M224.67 56.7186C224.611 56.663 224.546 56.616 224.479 56.5752L219.951 52.3118C219.51 51.8961 218.793 51.8959 218.351 52.312C217.909 52.728 217.909 53.4025 218.351 53.8188L222.251 57.4905L218.332 61.1814C217.889 61.5972 217.889 62.2719 218.332 62.6883C218.553 62.896 218.842 63 219.131 63C219.421 63 219.711 62.896 219.931 62.6879L224.479 58.4058C224.546 58.3649 224.611 58.3182 224.67 58.2623C224.896 58.0492 225.005 57.7695 225 57.4905C225.005 57.2113 224.896 56.9311 224.67 56.7186Z" fill="white"/>
<defs>
<filter id="filter0_d_1_10" x="0" y="0" width="303" height="135" filterUnits="userSpaceOnUse" color-interpolation-filters="sRGB">
<feFlood flood-opacity="0" result="BackgroundImageFix"/>
<feColorMatrix in="SourceAlpha" type="matrix" values="0 0 0 0 0 0 0 0 0 0 0 0 0 0 0 0 0 0 127 0" result="hardAlpha"/>
<feOffset dy="10"/>
<feGaussianBlur stdDeviation="13"/>
<feComposite in2="hardAlpha" operator="out"/>
<feColorMatrix type="matrix" values="0 0 0 0 0.0470588 0 0 0 0 0.552941 0 0 0 0 0.188235 0 0 0 1 0"/>
<feBlend mode="normal" in2="BackgroundImageFix" result="effect1_dropShadow_1_10"/>
<feBlend mode="normal" in="SourceGraphic" in2="effect1_dropShadow_1_10" result="shape"/>
</filter>
</defs>
</svg>
