<svg width="30" height="32" viewBox="0 0 30 32" fill="none" xmlns="http://www.w3.org/2000/svg">
<mask id="path-1-inside-1_170_607" fill="white">
<path d="M16.6006 7.83753C16.5554 8.36268 16.4354 8.87354 16.3153 9.38496L16.315 9.38601C16.2707 9.57493 16.2263 9.76393 16.1856 9.95376C15.9751 10.9427 15.7603 11.9306 15.5436 12.9185C15.4775 13.221 15.3619 13.4915 14.9871 13.4801C14.6424 13.4698 14.535 13.2117 14.4731 12.9299C14.3819 12.5161 14.2897 12.1024 14.1974 11.6888C13.9425 10.5465 13.6877 9.40406 13.4573 8.25665C13.2673 7.31003 13.6668 6.57502 14.4462 6.28597C15.1884 6.01035 15.9926 6.30661 16.4055 6.99621C16.5645 7.25945 16.6058 7.5392 16.6006 7.83753Z"/>
<path d="M14.9768 18.652C15.5993 18.6675 16.0649 18.2236 16.0742 17.6063C16.0835 16.9869 15.6313 16.5244 15.014 16.5213C14.4152 16.5182 13.9641 16.9476 13.9435 17.5412C13.9218 18.1627 14.3636 18.6365 14.9768 18.652Z"/>
<path fill-rule="evenodd" clip-rule="evenodd" d="M23.8199 15.1912C23.8197 14.2671 23.8196 13.343 23.8196 12.4189C23.8196 11.4952 23.8197 10.5714 23.8199 9.64757C23.8203 7.33773 23.8207 5.02751 23.8185 2.7173C23.8165 1.09245 22.7263 0.00335828 21.1005 0.00232496C17.0404 -0.000774987 12.9814 -0.000774987 8.9213 0.00232496C7.29232 0.00335828 6.20117 1.09038 6.20014 2.71007C6.19792 4.4547 6.19835 6.19987 6.19878 7.94482L6.19899 8.90779C6.19906 9.2847 6.19911 9.66158 6.19911 10.0384C6.19911 10.5392 6.19901 11.04 6.1989 11.5408V11.5558C6.19855 13.3035 6.1982 15.0513 6.20221 16.799C6.20221 16.8219 6.20043 16.8463 6.19793 16.8715C6.19636 16.8875 6.19451 16.9038 6.19263 16.9202L6.19252 16.9211C6.17655 17.0599 6.15941 17.2091 6.30234 17.2604C6.43448 17.3083 6.52555 17.1949 6.61234 17.0867C6.6415 17.0504 6.67018 17.0147 6.69977 16.9858C6.8585 16.8307 7.01391 16.6719 7.16934 16.513C7.41117 16.2657 7.65306 16.0184 7.90757 15.7853C8.66734 15.0905 9.56546 14.8727 10.5369 15.2093C11.4763 15.5355 12.0781 16.2127 12.3021 17.1995C12.5499 18.2927 12.1163 19.1372 11.3565 19.8794C10.7612 20.4612 10.1706 21.0479 9.5798 21.6346C9.0846 22.1265 8.58935 22.6183 8.09132 23.1074C7.84976 23.3449 7.76717 23.4894 8.18423 23.6215C8.71484 23.7898 9.18866 24.085 9.56443 24.498C9.8225 24.7818 10.1146 24.8541 10.4811 24.8531C12.695 24.8473 14.9092 24.8475 17.1236 24.8477C18.453 24.8479 19.7824 24.848 21.1118 24.8469C22.7325 24.8458 23.8175 23.7516 23.8185 22.1205C23.8207 19.8111 23.8203 17.5012 23.8199 15.1912ZM12.4657 7.86807C12.4646 7.83846 12.4634 7.80802 12.4611 7.77664C12.5271 6.76187 12.9803 5.97527 13.9166 5.5231C14.8116 5.08747 15.7015 5.16799 16.4953 5.75744C17.3191 6.36856 17.6949 7.213 17.4853 8.24118C17.1426 9.92281 16.7751 11.6003 16.4024 13.2757C16.2486 13.9684 15.6592 14.4423 15.0109 14.4443C14.4039 14.4454 13.7897 14.0087 13.6451 13.379C13.3338 12.0215 13.0424 10.6591 12.7511 9.29705C12.7017 9.06579 12.6522 8.83455 12.6027 8.60332L12.4828 8.04505C12.4702 7.98859 12.468 7.93025 12.4657 7.86845V7.86807ZM17.027 17.5805C17.0311 18.6489 16.1072 19.5852 15.0264 19.6059C13.9662 19.6265 13.0196 18.7026 12.9886 17.6176C12.9587 16.5616 13.8743 15.6118 14.9634 15.5675C16.0339 15.5241 17.0218 16.4883 17.027 17.5805Z"/>
<path d="M5.97222 31.0413C6.47866 31.042 6.98511 31.0428 7.49156 31.0428L8.78083 31.043C10.2427 31.0433 11.7051 31.0437 13.1682 31.0397C13.8764 31.0387 14.0364 30.9014 14.0054 30.1963C13.9775 29.5563 14.0994 29.004 14.4844 28.4641C14.9562 27.8034 15.2204 27.0343 15.3722 26.2281C15.4352 25.8895 15.3165 25.8017 15.0057 25.8038C13.6648 25.8121 12.3228 25.811 10.9818 25.8048C10.6731 25.8038 10.5317 25.8823 10.6401 26.2281C10.7091 26.4476 10.7468 26.6782 10.7843 26.9079L10.7979 26.9909L10.8037 27.0261L10.8068 27.0443L10.8111 27.0697L10.8135 27.0839C10.8765 27.4483 10.798 27.791 10.3862 27.822C9.9949 27.8509 9.91026 27.5154 9.88238 27.1789C9.75025 25.5819 8.58993 24.4205 6.98262 24.275L6.95701 24.2728L6.93292 24.2708C6.70379 24.2519 6.47927 24.2333 6.38493 23.9715C6.28273 23.6876 6.41692 23.4739 6.61926 23.2871C6.63641 23.2711 6.65335 23.2549 6.67016 23.2386C6.67675 23.2322 6.68332 23.2258 6.68987 23.2193C6.71757 23.192 6.74495 23.1644 6.77232 23.1367C6.80649 23.1021 6.84063 23.0673 6.87527 23.0331C7.22749 22.6828 7.57994 22.3326 7.93243 21.9823L7.9375 21.9773C8.90051 21.0204 9.86382 20.0631 10.8238 19.1031C11.5361 18.3898 11.6445 17.4525 11.1108 16.7247C10.446 15.8183 9.25473 15.7347 8.4227 16.5626C7.41653 17.5637 6.41693 18.5724 5.41754 19.5809L5.09875 19.9026C4.77608 20.2281 4.45336 20.5536 4.13036 20.8787C3.91461 21.0965 3.67409 21.3112 3.37988 21.0387C3.07224 20.7538 3.24258 20.4782 3.47898 20.2386L3.56483 20.1514C4.03061 19.6778 4.49599 19.2046 4.96962 18.7387C5.15235 18.5591 5.24216 18.363 5.24112 18.1007C5.237 17.1674 5.23691 16.2343 5.23684 15.3012C5.23677 14.6007 5.23671 13.9001 5.23493 13.1994C5.23471 13.1716 5.23764 13.1412 5.24066 13.1101C5.25139 12.9989 5.26302 12.8785 5.1348 12.8349C5.01653 12.7944 4.93831 12.8874 4.86571 12.9738C4.8458 12.9974 4.82631 13.0206 4.80652 13.0404C4.68768 13.1588 4.56871 13.2771 4.44967 13.3953L4.2382 13.6052C4.13409 13.7084 4.02994 13.8117 3.92579 13.915L3.91864 13.9221C3.02983 14.8031 2.14115 15.6841 1.27397 16.5853C0.432639 17.4607 -0.00609178 18.5199 0.000108115 19.7555C0.011462 22.0772 0.0124953 24.3989 0.000108115 26.7205C-0.00712509 28.0594 0.349028 29.2961 0.934339 30.4864C1.13565 30.8952 1.41333 31.0541 1.86858 31.05C3.23371 31.0372 4.59937 31.0392 5.96519 31.0413H5.97222Z"/>
<path d="M4.19747 4.65907C4.21295 5.08026 3.81139 5.38789 3.42014 5.17316C2.50242 4.67145 1.61051 4.12021 0.72789 3.55761C0.466713 3.3914 0.450193 3.08274 0.630846 2.8226C0.832141 2.53251 1.12636 2.52014 1.40818 2.68015C1.88157 2.94838 2.34819 3.22897 2.81468 3.50947L2.82977 3.51847L2.85111 3.53132C2.91977 3.57261 2.98842 3.61389 3.0571 3.65512L3.22504 3.75581C3.4604 3.89722 3.69474 4.04176 3.92598 4.18937C4.09528 4.29777 4.19127 4.45365 4.19747 4.65907Z"/>
<path d="M25.8666 4.90889C25.9523 5.12051 26.1278 5.21961 26.3879 5.22785C26.397 5.22652 26.4089 5.22594 26.4225 5.22528C26.4614 5.22342 26.5144 5.22087 26.5572 5.19794C27.5101 4.68589 28.4495 4.14806 29.3311 3.52044C29.5592 3.35836 29.5561 3.06001 29.393 2.81743C29.2237 2.56659 28.9481 2.5036 28.7086 2.63988C27.7991 3.16016 26.9031 3.70109 26.0153 4.25749C25.7892 4.39994 25.7665 4.66318 25.8666 4.90889Z"/>
<path d="M4.19643 9.85879C4.19643 10.1127 4.04881 10.2707 3.84751 10.3915C3.62809 10.5234 3.4089 10.6558 3.18969 10.7882L3.18818 10.789C2.61378 11.136 2.03922 11.4832 1.45978 11.8222C1.14597 12.006 0.8115 12.0277 0.606072 11.6705C0.407864 11.3267 0.55239 11.0428 0.87859 10.8467C1.10053 10.713 1.3219 10.5783 1.54325 10.4436C2.11474 10.0958 2.68622 9.74808 3.26735 9.41696C3.74738 9.14238 4.20778 9.37979 4.19643 9.85879Z"/>
<path d="M26.8556 9.47271C26.7069 9.38392 26.5583 9.29826 26.3776 9.3003C26.1299 9.29927 25.9379 9.40353 25.8553 9.63993C25.7531 9.93622 25.8419 10.1871 26.1113 10.3512C26.6213 10.6621 27.1327 10.9699 27.6442 11.2778C27.9123 11.4391 28.1804 11.6005 28.4484 11.7624C28.786 11.9668 29.1463 12.0824 29.3951 11.6808C29.6604 11.2514 29.3775 10.9809 29.0214 10.7683C28.2998 10.3384 27.5792 9.90645 26.8586 9.47453L26.8556 9.47271Z"/>
<path d="M1.77814 7.81353C1.39331 7.81469 1.00846 7.81585 0.623613 7.81172C0.263339 7.80862 0.0186826 7.64757 0.0186826 7.26356C0.0186826 6.87954 0.262306 6.71542 0.62258 6.71439C1.61876 6.71129 2.61494 6.70922 3.61112 6.71646C3.97655 6.71953 4.20366 6.90742 4.19127 7.2873C4.17992 7.64243 3.95074 7.80449 3.61317 7.80965C3.24037 7.81563 2.86811 7.81459 2.49599 7.81356C2.3529 7.81316 2.20984 7.81275 2.06678 7.81275C2.00521 7.81288 1.94364 7.81306 1.88207 7.81323L1.77814 7.81353Z"/>
<path d="M27.4673 7.81366C27.6138 7.81321 27.7602 7.81275 27.9065 7.81275C28.0623 7.81275 28.218 7.81326 28.3737 7.81376C28.7163 7.81487 29.0588 7.81598 29.4023 7.81172C29.7646 7.80759 30.0021 7.63933 30 7.25635C29.9979 6.90225 29.7791 6.7216 29.4384 6.71852C28.4247 6.71026 27.412 6.71129 26.3983 6.71749C26.0586 6.71953 25.8336 6.88988 25.8264 7.24498C25.8181 7.62693 26.0483 7.80552 26.4127 7.81069C26.7626 7.81578 27.113 7.81472 27.4632 7.81366H27.4673Z"/>
</mask>
<path d="M16.6006 7.83753C16.5554 8.36268 16.4354 8.87354 16.3153 9.38496L16.315 9.38601C16.2707 9.57493 16.2263 9.76393 16.1856 9.95376C15.9751 10.9427 15.7603 11.9306 15.5436 12.9185C15.4775 13.221 15.3619 13.4915 14.9871 13.4801C14.6424 13.4698 14.535 13.2117 14.4731 12.9299C14.3819 12.5161 14.2897 12.1024 14.1974 11.6888C13.9425 10.5465 13.6877 9.40406 13.4573 8.25665C13.2673 7.31003 13.6668 6.57502 14.4462 6.28597C15.1884 6.01035 15.9926 6.30661 16.4055 6.99621C16.5645 7.25945 16.6058 7.5392 16.6006 7.83753Z" fill="black"/>
<path d="M14.9768 18.652C15.5993 18.6675 16.0649 18.2236 16.0742 17.6063C16.0835 16.9869 15.6313 16.5244 15.014 16.5213C14.4152 16.5182 13.9641 16.9476 13.9435 17.5412C13.9218 18.1627 14.3636 18.6365 14.9768 18.652Z" fill="black"/>
<path fill-rule="evenodd" clip-rule="evenodd" d="M23.8199 15.1912C23.8197 14.2671 23.8196 13.343 23.8196 12.4189C23.8196 11.4952 23.8197 10.5714 23.8199 9.64757C23.8203 7.33773 23.8207 5.02751 23.8185 2.7173C23.8165 1.09245 22.7263 0.00335828 21.1005 0.00232496C17.0404 -0.000774987 12.9814 -0.000774987 8.9213 0.00232496C7.29232 0.00335828 6.20117 1.09038 6.20014 2.71007C6.19792 4.4547 6.19835 6.19987 6.19878 7.94482L6.19899 8.90779C6.19906 9.2847 6.19911 9.66158 6.19911 10.0384C6.19911 10.5392 6.19901 11.04 6.1989 11.5408V11.5558C6.19855 13.3035 6.1982 15.0513 6.20221 16.799C6.20221 16.8219 6.20043 16.8463 6.19793 16.8715C6.19636 16.8875 6.19451 16.9038 6.19263 16.9202L6.19252 16.9211C6.17655 17.0599 6.15941 17.2091 6.30234 17.2604C6.43448 17.3083 6.52555 17.1949 6.61234 17.0867C6.6415 17.0504 6.67018 17.0147 6.69977 16.9858C6.8585 16.8307 7.01391 16.6719 7.16934 16.513C7.41117 16.2657 7.65306 16.0184 7.90757 15.7853C8.66734 15.0905 9.56546 14.8727 10.5369 15.2093C11.4763 15.5355 12.0781 16.2127 12.3021 17.1995C12.5499 18.2927 12.1163 19.1372 11.3565 19.8794C10.7612 20.4612 10.1706 21.0479 9.5798 21.6346C9.0846 22.1265 8.58935 22.6183 8.09132 23.1074C7.84976 23.3449 7.76717 23.4894 8.18423 23.6215C8.71484 23.7898 9.18866 24.085 9.56443 24.498C9.8225 24.7818 10.1146 24.8541 10.4811 24.8531C12.695 24.8473 14.9092 24.8475 17.1236 24.8477C18.453 24.8479 19.7824 24.848 21.1118 24.8469C22.7325 24.8458 23.8175 23.7516 23.8185 22.1205C23.8207 19.8111 23.8203 17.5012 23.8199 15.1912ZM12.4657 7.86807C12.4646 7.83846 12.4634 7.80802 12.4611 7.77664C12.5271 6.76187 12.9803 5.97527 13.9166 5.5231C14.8116 5.08747 15.7015 5.16799 16.4953 5.75744C17.3191 6.36856 17.6949 7.213 17.4853 8.24118C17.1426 9.92281 16.7751 11.6003 16.4024 13.2757C16.2486 13.9684 15.6592 14.4423 15.0109 14.4443C14.4039 14.4454 13.7897 14.0087 13.6451 13.379C13.3338 12.0215 13.0424 10.6591 12.7511 9.29705C12.7017 9.06579 12.6522 8.83455 12.6027 8.60332L12.4828 8.04505C12.4702 7.98859 12.468 7.93025 12.4657 7.86845V7.86807ZM17.027 17.5805C17.0311 18.6489 16.1072 19.5852 15.0264 19.6059C13.9662 19.6265 13.0196 18.7026 12.9886 17.6176C12.9587 16.5616 13.8743 15.6118 14.9634 15.5675C16.0339 15.5241 17.0218 16.4883 17.027 17.5805Z" fill="black"/>
<path d="M5.97222 31.0413C6.47866 31.042 6.98511 31.0428 7.49156 31.0428L8.78083 31.043C10.2427 31.0433 11.7051 31.0437 13.1682 31.0397C13.8764 31.0387 14.0364 30.9014 14.0054 30.1963C13.9775 29.5563 14.0994 29.004 14.4844 28.4641C14.9562 27.8034 15.2204 27.0343 15.3722 26.2281C15.4352 25.8895 15.3165 25.8017 15.0057 25.8038C13.6648 25.8121 12.3228 25.811 10.9818 25.8048C10.6731 25.8038 10.5317 25.8823 10.6401 26.2281C10.7091 26.4476 10.7468 26.6782 10.7843 26.9079L10.7979 26.9909L10.8037 27.0261L10.8068 27.0443L10.8111 27.0697L10.8135 27.0839C10.8765 27.4483 10.798 27.791 10.3862 27.822C9.9949 27.8509 9.91026 27.5154 9.88238 27.1789C9.75025 25.5819 8.58993 24.4205 6.98262 24.275L6.95701 24.2728L6.93292 24.2708C6.70379 24.2519 6.47927 24.2333 6.38493 23.9715C6.28273 23.6876 6.41692 23.4739 6.61926 23.2871C6.63641 23.2711 6.65335 23.2549 6.67016 23.2386C6.67675 23.2322 6.68332 23.2258 6.68987 23.2193C6.71757 23.192 6.74495 23.1644 6.77232 23.1367C6.80649 23.1021 6.84063 23.0673 6.87527 23.0331C7.22749 22.6828 7.57994 22.3326 7.93243 21.9823L7.9375 21.9773C8.90051 21.0204 9.86382 20.0631 10.8238 19.1031C11.5361 18.3898 11.6445 17.4525 11.1108 16.7247C10.446 15.8183 9.25473 15.7347 8.4227 16.5626C7.41653 17.5637 6.41693 18.5724 5.41754 19.5809L5.09875 19.9026C4.77608 20.2281 4.45336 20.5536 4.13036 20.8787C3.91461 21.0965 3.67409 21.3112 3.37988 21.0387C3.07224 20.7538 3.24258 20.4782 3.47898 20.2386L3.56483 20.1514C4.03061 19.6778 4.49599 19.2046 4.96962 18.7387C5.15235 18.5591 5.24216 18.363 5.24112 18.1007C5.237 17.1674 5.23691 16.2343 5.23684 15.3012C5.23677 14.6007 5.23671 13.9001 5.23493 13.1994C5.23471 13.1716 5.23764 13.1412 5.24066 13.1101C5.25139 12.9989 5.26302 12.8785 5.1348 12.8349C5.01653 12.7944 4.93831 12.8874 4.86571 12.9738C4.8458 12.9974 4.82631 13.0206 4.80652 13.0404C4.68768 13.1588 4.56871 13.2771 4.44967 13.3953L4.2382 13.6052C4.13409 13.7084 4.02994 13.8117 3.92579 13.915L3.91864 13.9221C3.02983 14.8031 2.14115 15.6841 1.27397 16.5853C0.432639 17.4607 -0.00609178 18.5199 0.000108115 19.7555C0.011462 22.0772 0.0124953 24.3989 0.000108115 26.7205C-0.00712509 28.0594 0.349028 29.2961 0.934339 30.4864C1.13565 30.8952 1.41333 31.0541 1.86858 31.05C3.23371 31.0372 4.59937 31.0392 5.96519 31.0413H5.97222Z" fill="black"/>
<path d="M4.19747 4.65907C4.21295 5.08026 3.81139 5.38789 3.42014 5.17316C2.50242 4.67145 1.61051 4.12021 0.72789 3.55761C0.466713 3.3914 0.450193 3.08274 0.630846 2.8226C0.832141 2.53251 1.12636 2.52014 1.40818 2.68015C1.88157 2.94838 2.34819 3.22897 2.81468 3.50947L2.82977 3.51847L2.85111 3.53132C2.91977 3.57261 2.98842 3.61389 3.0571 3.65512L3.22504 3.75581C3.4604 3.89722 3.69474 4.04176 3.92598 4.18937C4.09528 4.29777 4.19127 4.45365 4.19747 4.65907Z" fill="black"/>
<path d="M25.8666 4.90889C25.9523 5.12051 26.1278 5.21961 26.3879 5.22785C26.397 5.22652 26.4089 5.22594 26.4225 5.22528C26.4614 5.22342 26.5144 5.22087 26.5572 5.19794C27.5101 4.68589 28.4495 4.14806 29.3311 3.52044C29.5592 3.35836 29.5561 3.06001 29.393 2.81743C29.2237 2.56659 28.9481 2.5036 28.7086 2.63988C27.7991 3.16016 26.9031 3.70109 26.0153 4.25749C25.7892 4.39994 25.7665 4.66318 25.8666 4.90889Z" fill="black"/>
<path d="M4.19643 9.85879C4.19643 10.1127 4.04881 10.2707 3.84751 10.3915C3.62809 10.5234 3.4089 10.6558 3.18969 10.7882L3.18818 10.789C2.61378 11.136 2.03922 11.4832 1.45978 11.8222C1.14597 12.006 0.8115 12.0277 0.606072 11.6705C0.407864 11.3267 0.55239 11.0428 0.87859 10.8467C1.10053 10.713 1.3219 10.5783 1.54325 10.4436C2.11474 10.0958 2.68622 9.74808 3.26735 9.41696C3.74738 9.14238 4.20778 9.37979 4.19643 9.85879Z" fill="black"/>
<path d="M26.8556 9.47271C26.7069 9.38392 26.5583 9.29826 26.3776 9.3003C26.1299 9.29927 25.9379 9.40353 25.8553 9.63993C25.7531 9.93622 25.8419 10.1871 26.1113 10.3512C26.6213 10.6621 27.1327 10.9699 27.6442 11.2778C27.9123 11.4391 28.1804 11.6005 28.4484 11.7624C28.786 11.9668 29.1463 12.0824 29.3951 11.6808C29.6604 11.2514 29.3775 10.9809 29.0214 10.7683C28.2998 10.3384 27.5792 9.90645 26.8586 9.47453L26.8556 9.47271Z" fill="black"/>
<path d="M1.77814 7.81353C1.39331 7.81469 1.00846 7.81585 0.623613 7.81172C0.263339 7.80862 0.0186826 7.64757 0.0186826 7.26356C0.0186826 6.87954 0.262306 6.71542 0.62258 6.71439C1.61876 6.71129 2.61494 6.70922 3.61112 6.71646C3.97655 6.71953 4.20366 6.90742 4.19127 7.2873C4.17992 7.64243 3.95074 7.80449 3.61317 7.80965C3.24037 7.81563 2.86811 7.81459 2.49599 7.81356C2.3529 7.81316 2.20984 7.81275 2.06678 7.81275C2.00521 7.81288 1.94364 7.81306 1.88207 7.81323L1.77814 7.81353Z" fill="black"/>
<path d="M27.4673 7.81366C27.6138 7.81321 27.7602 7.81275 27.9065 7.81275C28.0623 7.81275 28.218 7.81326 28.3737 7.81376C28.7163 7.81487 29.0588 7.81598 29.4023 7.81172C29.7646 7.80759 30.0021 7.63933 30 7.25635C29.9979 6.90225 29.7791 6.7216 29.4384 6.71852C28.4247 6.71026 27.412 6.71129 26.3983 6.71749C26.0586 6.71953 25.8336 6.88988 25.8264 7.24498C25.8181 7.62693 26.0483 7.80552 26.4127 7.81069C26.7626 7.81578 27.113 7.81472 27.4632 7.81366H27.4673Z" fill="black"/>
<path d="M16.6006 7.83753C16.5554 8.36268 16.4354 8.87354 16.3153 9.38496L16.315 9.38601C16.2707 9.57493 16.2263 9.76393 16.1856 9.95376C15.9751 10.9427 15.7603 11.9306 15.5436 12.9185C15.4775 13.221 15.3619 13.4915 14.9871 13.4801C14.6424 13.4698 14.535 13.2117 14.4731 12.9299C14.3819 12.5161 14.2897 12.1024 14.1974 11.6888C13.9425 10.5465 13.6877 9.40406 13.4573 8.25665C13.2673 7.31003 13.6668 6.57502 14.4462 6.28597C15.1884 6.01035 15.9926 6.30661 16.4055 6.99621C16.5645 7.25945 16.6058 7.5392 16.6006 7.83753Z" stroke="#BC9E9E" stroke-width="2" mask="url(#path-1-inside-1_170_607)"/>
<path d="M14.9768 18.652C15.5993 18.6675 16.0649 18.2236 16.0742 17.6063C16.0835 16.9869 15.6313 16.5244 15.014 16.5213C14.4152 16.5182 13.9641 16.9476 13.9435 17.5412C13.9218 18.1627 14.3636 18.6365 14.9768 18.652Z" stroke="#BC9E9E" stroke-width="2" mask="url(#path-1-inside-1_170_607)"/>
<path fill-rule="evenodd" clip-rule="evenodd" d="M23.8199 15.1912C23.8197 14.2671 23.8196 13.343 23.8196 12.4189C23.8196 11.4952 23.8197 10.5714 23.8199 9.64757C23.8203 7.33773 23.8207 5.02751 23.8185 2.7173C23.8165 1.09245 22.7263 0.00335828 21.1005 0.00232496C17.0404 -0.000774987 12.9814 -0.000774987 8.9213 0.00232496C7.29232 0.00335828 6.20117 1.09038 6.20014 2.71007C6.19792 4.4547 6.19835 6.19987 6.19878 7.94482L6.19899 8.90779C6.19906 9.2847 6.19911 9.66158 6.19911 10.0384C6.19911 10.5392 6.19901 11.04 6.1989 11.5408V11.5558C6.19855 13.3035 6.1982 15.0513 6.20221 16.799C6.20221 16.8219 6.20043 16.8463 6.19793 16.8715C6.19636 16.8875 6.19451 16.9038 6.19263 16.9202L6.19252 16.9211C6.17655 17.0599 6.15941 17.2091 6.30234 17.2604C6.43448 17.3083 6.52555 17.1949 6.61234 17.0867C6.6415 17.0504 6.67018 17.0147 6.69977 16.9858C6.8585 16.8307 7.01391 16.6719 7.16934 16.513C7.41117 16.2657 7.65306 16.0184 7.90757 15.7853C8.66734 15.0905 9.56546 14.8727 10.5369 15.2093C11.4763 15.5355 12.0781 16.2127 12.3021 17.1995C12.5499 18.2927 12.1163 19.1372 11.3565 19.8794C10.7612 20.4612 10.1706 21.0479 9.5798 21.6346C9.0846 22.1265 8.58935 22.6183 8.09132 23.1074C7.84976 23.3449 7.76717 23.4894 8.18423 23.6215C8.71484 23.7898 9.18866 24.085 9.56443 24.498C9.8225 24.7818 10.1146 24.8541 10.4811 24.8531C12.695 24.8473 14.9092 24.8475 17.1236 24.8477C18.453 24.8479 19.7824 24.848 21.1118 24.8469C22.7325 24.8458 23.8175 23.7516 23.8185 22.1205C23.8207 19.8111 23.8203 17.5012 23.8199 15.1912ZM12.4657 7.86807C12.4646 7.83846 12.4634 7.80802 12.4611 7.77664C12.5271 6.76187 12.9803 5.97527 13.9166 5.5231C14.8116 5.08747 15.7015 5.16799 16.4953 5.75744C17.3191 6.36856 17.6949 7.213 17.4853 8.24118C17.1426 9.92281 16.7751 11.6003 16.4024 13.2757C16.2486 13.9684 15.6592 14.4423 15.0109 14.4443C14.4039 14.4454 13.7897 14.0087 13.6451 13.379C13.3338 12.0215 13.0424 10.6591 12.7511 9.29705C12.7017 9.06579 12.6522 8.83455 12.6027 8.60332L12.4828 8.04505C12.4702 7.98859 12.468 7.93025 12.4657 7.86845V7.86807ZM17.027 17.5805C17.0311 18.6489 16.1072 19.5852 15.0264 19.6059C13.9662 19.6265 13.0196 18.7026 12.9886 17.6176C12.9587 16.5616 13.8743 15.6118 14.9634 15.5675C16.0339 15.5241 17.0218 16.4883 17.027 17.5805Z" stroke="#BC9E9E" stroke-width="2" mask="url(#path-1-inside-1_170_607)"/>
<path d="M5.97222 31.0413C6.47866 31.042 6.98511 31.0428 7.49156 31.0428L8.78083 31.043C10.2427 31.0433 11.7051 31.0437 13.1682 31.0397C13.8764 31.0387 14.0364 30.9014 14.0054 30.1963C13.9775 29.5563 14.0994 29.004 14.4844 28.4641C14.9562 27.8034 15.2204 27.0343 15.3722 26.2281C15.4352 25.8895 15.3165 25.8017 15.0057 25.8038C13.6648 25.8121 12.3228 25.811 10.9818 25.8048C10.6731 25.8038 10.5317 25.8823 10.6401 26.2281C10.7091 26.4476 10.7468 26.6782 10.7843 26.9079L10.7979 26.9909L10.8037 27.0261L10.8068 27.0443L10.8111 27.0697L10.8135 27.0839C10.8765 27.4483 10.798 27.791 10.3862 27.822C9.9949 27.8509 9.91026 27.5154 9.88238 27.1789C9.75025 25.5819 8.58993 24.4205 6.98262 24.275L6.95701 24.2728L6.93292 24.2708C6.70379 24.2519 6.47927 24.2333 6.38493 23.9715C6.28273 23.6876 6.41692 23.4739 6.61926 23.2871C6.63641 23.2711 6.65335 23.2549 6.67016 23.2386C6.67675 23.2322 6.68332 23.2258 6.68987 23.2193C6.71757 23.192 6.74495 23.1644 6.77232 23.1367C6.80649 23.1021 6.84063 23.0673 6.87527 23.0331C7.22749 22.6828 7.57994 22.3326 7.93243 21.9823L7.9375 21.9773C8.90051 21.0204 9.86382 20.0631 10.8238 19.1031C11.5361 18.3898 11.6445 17.4525 11.1108 16.7247C10.446 15.8183 9.25473 15.7347 8.4227 16.5626C7.41653 17.5637 6.41693 18.5724 5.41754 19.5809L5.09875 19.9026C4.77608 20.2281 4.45336 20.5536 4.13036 20.8787C3.91461 21.0965 3.67409 21.3112 3.37988 21.0387C3.07224 20.7538 3.24258 20.4782 3.47898 20.2386L3.56483 20.1514C4.03061 19.6778 4.49599 19.2046 4.96962 18.7387C5.15235 18.5591 5.24216 18.363 5.24112 18.1007C5.237 17.1674 5.23691 16.2343 5.23684 15.3012C5.23677 14.6007 5.23671 13.9001 5.23493 13.1994C5.23471 13.1716 5.23764 13.1412 5.24066 13.1101C5.25139 12.9989 5.26302 12.8785 5.1348 12.8349C5.01653 12.7944 4.93831 12.8874 4.86571 12.9738C4.8458 12.9974 4.82631 13.0206 4.80652 13.0404C4.68768 13.1588 4.56871 13.2771 4.44967 13.3953L4.2382 13.6052C4.13409 13.7084 4.02994 13.8117 3.92579 13.915L3.91864 13.9221C3.02983 14.8031 2.14115 15.6841 1.27397 16.5853C0.432639 17.4607 -0.00609178 18.5199 0.000108115 19.7555C0.011462 22.0772 0.0124953 24.3989 0.000108115 26.7205C-0.00712509 28.0594 0.349028 29.2961 0.934339 30.4864C1.13565 30.8952 1.41333 31.0541 1.86858 31.05C3.23371 31.0372 4.59937 31.0392 5.96519 31.0413H5.97222Z" stroke="#BC9E9E" stroke-width="2" mask="url(#path-1-inside-1_170_607)"/>
<path d="M4.19747 4.65907C4.21295 5.08026 3.81139 5.38789 3.42014 5.17316C2.50242 4.67145 1.61051 4.12021 0.72789 3.55761C0.466713 3.3914 0.450193 3.08274 0.630846 2.8226C0.832141 2.53251 1.12636 2.52014 1.40818 2.68015C1.88157 2.94838 2.34819 3.22897 2.81468 3.50947L2.82977 3.51847L2.85111 3.53132C2.91977 3.57261 2.98842 3.61389 3.0571 3.65512L3.22504 3.75581C3.4604 3.89722 3.69474 4.04176 3.92598 4.18937C4.09528 4.29777 4.19127 4.45365 4.19747 4.65907Z" stroke="#BC9E9E" stroke-width="2" mask="url(#path-1-inside-1_170_607)"/>
<path d="M25.8666 4.90889C25.9523 5.12051 26.1278 5.21961 26.3879 5.22785C26.397 5.22652 26.4089 5.22594 26.4225 5.22528C26.4614 5.22342 26.5144 5.22087 26.5572 5.19794C27.5101 4.68589 28.4495 4.14806 29.3311 3.52044C29.5592 3.35836 29.5561 3.06001 29.393 2.81743C29.2237 2.56659 28.9481 2.5036 28.7086 2.63988C27.7991 3.16016 26.9031 3.70109 26.0153 4.25749C25.7892 4.39994 25.7665 4.66318 25.8666 4.90889Z" stroke="#BC9E9E" stroke-width="2" mask="url(#path-1-inside-1_170_607)"/>
<path d="M4.19643 9.85879C4.19643 10.1127 4.04881 10.2707 3.84751 10.3915C3.62809 10.5234 3.4089 10.6558 3.18969 10.7882L3.18818 10.789C2.61378 11.136 2.03922 11.4832 1.45978 11.8222C1.14597 12.006 0.8115 12.0277 0.606072 11.6705C0.407864 11.3267 0.55239 11.0428 0.87859 10.8467C1.10053 10.713 1.3219 10.5783 1.54325 10.4436C2.11474 10.0958 2.68622 9.74808 3.26735 9.41696C3.74738 9.14238 4.20778 9.37979 4.19643 9.85879Z" stroke="#BC9E9E" stroke-width="2" mask="url(#path-1-inside-1_170_607)"/>
<path d="M26.8556 9.47271C26.7069 9.38392 26.5583 9.29826 26.3776 9.3003C26.1299 9.29927 25.9379 9.40353 25.8553 9.63993C25.7531 9.93622 25.8419 10.1871 26.1113 10.3512C26.6213 10.6621 27.1327 10.9699 27.6442 11.2778C27.9123 11.4391 28.1804 11.6005 28.4484 11.7624C28.786 11.9668 29.1463 12.0824 29.3951 11.6808C29.6604 11.2514 29.3775 10.9809 29.0214 10.7683C28.2998 10.3384 27.5792 9.90645 26.8586 9.47453L26.8556 9.47271Z" stroke="#BC9E9E" stroke-width="2" mask="url(#path-1-inside-1_170_607)"/>
<path d="M1.77814 7.81353C1.39331 7.81469 1.00846 7.81585 0.623613 7.81172C0.263339 7.80862 0.0186826 7.64757 0.0186826 7.26356C0.0186826 6.87954 0.262306 6.71542 0.62258 6.71439C1.61876 6.71129 2.61494 6.70922 3.61112 6.71646C3.97655 6.71953 4.20366 6.90742 4.19127 7.2873C4.17992 7.64243 3.95074 7.80449 3.61317 7.80965C3.24037 7.81563 2.86811 7.81459 2.49599 7.81356C2.3529 7.81316 2.20984 7.81275 2.06678 7.81275C2.00521 7.81288 1.94364 7.81306 1.88207 7.81323L1.77814 7.81353Z" stroke="#BC9E9E" stroke-width="2" mask="url(#path-1-inside-1_170_607)"/>
<path d="M27.4673 7.81366C27.6138 7.81321 27.7602 7.81275 27.9065 7.81275C28.0623 7.81275 28.218 7.81326 28.3737 7.81376C28.7163 7.81487 29.0588 7.81598 29.4023 7.81172C29.7646 7.80759 30.0021 7.63933 30 7.25635C29.9979 6.90225 29.7791 6.7216 29.4384 6.71852C28.4247 6.71026 27.412 6.71129 26.3983 6.71749C26.0586 6.71953 25.8336 6.88988 25.8264 7.24498C25.8181 7.62693 26.0483 7.80552 26.4127 7.81069C26.7626 7.81578 27.113 7.81472 27.4632 7.81366H27.4673Z" stroke="#BC9E9E" stroke-width="2" mask="url(#path-1-inside-1_170_607)"/>
</svg>
