<svg width="30" height="30" viewBox="0 0 30 30" fill="none" xmlns="http://www.w3.org/2000/svg">
<path d="M7.07634 8.70161H5.92749C5.57353 8.70161 5.23725 8.70057 4.91371 8.69956C4.22963 8.69743 3.60364 8.69552 2.97883 8.7038L2.97872 8.7038C1.77117 8.71952 0.757693 9.62737 0.603188 10.8171L0.603173 10.8172C0.459849 11.9189 0.48748 13.0385 0.556201 14.1769L7.07634 8.70161ZM7.07634 8.70161L6.2934 7.86086M7.07634 8.70161L6.2934 7.86086M6.2934 7.86086C5.53296 7.04427 5.16367 6.20898 5.00769 5.24281C4.8454 4.22996 5.18646 3.11469 5.86261 2.21061C6.53882 1.30645 7.50564 0.672641 8.52061 0.559501L8.52072 0.559488M6.2934 7.86086L8.52072 0.559488M8.52072 0.559488C10.8831 0.295609 12.7733 1.11475 14.2341 2.9818C14.3186 3.08991 14.4147 3.20052 14.5242 3.28512C14.6379 3.37293 14.808 3.46462 15.0244 3.45196C15.2338 3.4397 15.3878 3.33475 15.4837 3.25106C15.5794 3.16758 15.6646 3.06327 15.7378 2.96742L15.738 2.96719C16.9856 1.33178 18.6527 0.4928 20.6787 0.500047L20.6788 0.500047C22.452 0.50607 23.7637 1.37072 24.5199 2.99651C25.2599 4.58828 25.012 6.08775 23.9251 7.51177M8.52072 0.559488L23.9251 7.51177M23.9251 7.51177C23.8862 7.5627 23.845 7.61343 23.7826 7.69015L23.7826 7.69018L23.7063 7.78418L23.9251 7.51177ZM22.9728 8.70049L23.6227 7.88815C23.6532 7.85007 23.6809 7.81566 23.7063 7.78424L22.9728 8.70049ZM22.9728 8.70049H24.0131M22.9728 8.70049H24.0131M24.0131 8.70049H26.6499C27.5477 8.701 28.2071 8.93997 28.6521 9.3426C29.0945 9.74282 29.3863 10.36 29.4426 11.2413C29.5145 12.3771 29.5389 13.4971 29.3955 14.5992L29.3955 14.5992M24.0131 8.70049L29.3955 14.5992M29.3955 14.5992C29.2427 15.7738 28.2255 16.7028 27.0763 16.7037H27.0761M29.3955 14.5992L27.0761 16.7037M27.0761 16.7037C19.02 16.7137 10.9652 16.716 2.90939 16.7026H2.90927M27.0761 16.7037L2.90927 16.7026M2.90927 16.7026C1.65374 16.7008 0.650438 15.7321 0.556207 14.177L2.90927 16.7026ZM22.8077 4.83167L22.8077 4.83188C22.7598 5.81511 22.0928 6.69652 21.0853 6.89263C20.4198 7.02221 19.7519 7.13757 19.0901 7.25179L19.0897 7.25187L19.075 7.25439L22.8077 4.83167ZM22.8077 4.83167C22.8652 3.63975 21.8973 2.62666 20.678 2.62504L22.8077 4.83167ZM19.0718 7.25496L19.0721 7.25488L20.6777 2.62504C19.6406 2.62322 18.6705 2.98241 17.9246 3.68011C17.1785 4.37789 16.6844 5.38762 16.5471 6.64105L16.5471 6.64132C16.5279 6.81763 16.5212 7.14576 16.7809 7.37434C17.0311 7.59459 17.3502 7.56105 17.5247 7.52882L17.5252 7.52872C18.0381 7.43338 18.5531 7.34449 19.0718 7.25496ZM13.1028 5.24023L13.1025 5.23939C12.5357 3.65931 10.9646 2.58088 9.3073 2.62071L9.30721 2.62071C8.18147 2.64799 7.28249 3.47966 7.19093 4.60166L7.19087 4.60245C7.10674 5.65398 7.84923 6.69476 8.91994 6.89346L8.92044 6.89355C9.73392 7.04366 10.5493 7.17802 11.3977 7.31774L11.3977 7.31777L11.4033 7.3187C11.764 7.37813 12.1309 7.43857 12.5073 7.50178C12.6278 7.54549 12.7766 7.58044 12.9338 7.56015C13.1595 7.53103 13.3444 7.39509 13.4384 7.19207C13.514 7.02869 13.5126 6.8615 13.5029 6.75222C13.4924 6.63216 13.4645 6.50925 13.432 6.3955L13.4319 6.39514C13.3972 6.27362 13.3651 6.1503 13.3313 6.02047L13.3289 6.01139C13.2657 5.76872 13.1963 5.50227 13.1028 5.24023ZM7.38019 19.0864V19.0892H7.88019C8.33978 19.0892 8.79953 19.0901 9.2599 19.0911L9.26166 19.0911C10.473 19.0935 11.6887 19.096 12.9044 19.0814C12.9884 19.0804 13.0445 19.0846 13.0813 19.0903C13.086 19.12 13.0902 19.166 13.0898 19.2336L13.0898 19.2338C13.0697 22.5819 13.0719 25.9286 13.0887 29.2761C13.089 29.3354 13.0855 29.377 13.0814 29.4048C13.0501 29.4094 13.0033 29.4129 12.9358 29.4124L12.9355 29.4124C11.982 29.4062 11.0288 29.4082 10.0782 29.4102L10.0768 29.4102C8.81588 29.4129 7.55943 29.4156 6.3036 29.3991L6.30345 29.3991C5.19267 29.3848 4.32527 29.0229 3.73369 28.4294C3.14204 27.8359 2.78213 26.9664 2.76992 25.8542L2.76992 25.8541C2.75634 24.6216 2.7585 23.3885 2.76066 22.1519C2.76241 21.1579 2.76414 20.1617 2.75766 19.1654L2.75765 19.165C2.75738 19.1282 2.75829 19.0984 2.75979 19.0747C2.78398 19.0733 2.81443 19.0727 2.85229 19.0735L2.8531 19.0735C4.06661 19.097 5.27919 19.093 6.48556 19.089L6.4867 19.089L6.48836 19.089L6.49047 19.089L6.49214 19.089C6.78845 19.088 7.0844 19.087 7.38019 19.0864ZM22.1643 19.0903H22.6643V19.0837C22.9201 19.0838 23.176 19.084 23.432 19.0842H23.4325H23.4329C24.6964 19.085 25.9616 19.0859 27.2271 19.0792C27.2256 19.8185 27.2375 20.5574 27.2493 21.2911L27.2493 21.2929C27.2765 22.9876 27.3029 24.6543 27.17 26.3098C27.0899 27.3092 26.7179 28.0597 26.1526 28.5666C25.5846 29.0759 24.7768 29.379 23.7565 29.3968C22.4094 29.4203 21.0611 29.4163 19.7069 29.4123C18.8115 29.4097 17.9136 29.4071 17.0155 29.4124L17.0148 29.4124C16.9717 29.4127 16.9396 29.4108 16.9163 29.4081C16.9127 29.3802 16.9099 29.3405 16.91 29.2857C16.9234 25.9205 16.9234 22.5542 16.91 19.189L16.91 19.1886C16.9098 19.145 16.9118 19.1122 16.9144 19.0882C16.9413 19.0852 16.9785 19.0831 17.0289 19.0836C18.2662 19.0965 19.5035 19.0943 20.7375 19.092H20.7388C21.2143 19.0912 21.6893 19.0903 22.1643 19.0903ZM27.3884 19.085C27.3883 19.085 27.3878 19.0849 27.3871 19.0847L27.3884 19.085Z" fill="black" stroke="#BC9E9E"/>
</svg>
