<svg width="434" height="150" viewBox="0 0 434 150" fill="none" xmlns="http://www.w3.org/2000/svg">
<rect width="354" height="70" transform="translate(40 20)" fill="#F0E3C8"/>
<g filter="url(#filter0_d_3_40)">
<rect x="40" y="20" width="354" height="70" rx="10" fill="#0C8D30"/>
</g>
<path d="M167.175 63.168C166.007 63.168 164.951 62.968 164.007 62.568C163.079 62.168 162.343 61.592 161.799 60.84C161.255 60.088 160.975 59.2 160.959 58.176H164.559C164.607 58.864 164.847 59.408 165.279 59.808C165.727 60.208 166.335 60.408 167.103 60.408C167.887 60.408 168.503 60.224 168.951 59.856C169.399 59.472 169.623 58.976 169.623 58.368C169.623 57.872 169.471 57.464 169.167 57.144C168.863 56.824 168.479 56.576 168.015 56.4C167.567 56.208 166.943 56 166.143 55.776C165.055 55.456 164.167 55.144 163.479 54.84C162.807 54.52 162.223 54.048 161.727 53.424C161.247 52.784 161.007 51.936 161.007 50.88C161.007 49.888 161.255 49.024 161.751 48.288C162.247 47.552 162.943 46.992 163.839 46.608C164.735 46.208 165.759 46.008 166.911 46.008C168.639 46.008 170.039 46.432 171.111 47.28C172.199 48.112 172.799 49.28 172.911 50.784H169.215C169.183 50.208 168.935 49.736 168.471 49.368C168.023 48.984 167.423 48.792 166.671 48.792C166.015 48.792 165.487 48.96 165.087 49.296C164.703 49.632 164.511 50.12 164.511 50.76C164.511 51.208 164.655 51.584 164.943 51.888C165.247 52.176 165.615 52.416 166.047 52.608C166.495 52.784 167.119 52.992 167.919 53.232C169.007 53.552 169.895 53.872 170.583 54.192C171.271 54.512 171.863 54.992 172.359 55.632C172.855 56.272 173.103 57.112 173.103 58.152C173.103 59.048 172.871 59.88 172.407 60.648C171.943 61.416 171.263 62.032 170.367 62.496C169.471 62.944 168.407 63.168 167.175 63.168ZM188.376 56.064C188.376 56.544 188.344 56.976 188.28 57.36H178.56C178.64 58.32 178.976 59.072 179.568 59.616C180.16 60.16 180.888 60.432 181.752 60.432C183 60.432 183.888 59.896 184.416 58.824H188.04C187.656 60.104 186.92 61.16 185.832 61.992C184.744 62.808 183.408 63.216 181.824 63.216C180.544 63.216 179.392 62.936 178.368 62.376C177.36 61.8 176.568 60.992 175.992 59.952C175.432 58.912 175.152 57.712 175.152 56.352C175.152 54.976 175.432 53.768 175.992 52.728C176.552 51.688 177.336 50.888 178.344 50.328C179.352 49.768 180.512 49.488 181.824 49.488C183.088 49.488 184.216 49.76 185.208 50.304C186.216 50.848 186.992 51.624 187.536 52.632C188.096 53.624 188.376 54.768 188.376 56.064ZM184.896 55.104C184.88 54.24 184.568 53.552 183.96 53.04C183.352 52.512 182.608 52.248 181.728 52.248C180.896 52.248 180.192 52.504 179.616 53.016C179.056 53.512 178.712 54.208 178.584 55.104H184.896ZM198.197 49.512C199.781 49.512 201.061 50.016 202.037 51.024C203.013 52.016 203.501 53.408 203.501 55.2V63H200.141V55.656C200.141 54.6 199.877 53.792 199.349 53.232C198.821 52.656 198.101 52.368 197.189 52.368C196.261 52.368 195.525 52.656 194.981 53.232C194.453 53.792 194.189 54.6 194.189 55.656V63H190.829V49.704H194.189V51.36C194.637 50.784 195.205 50.336 195.893 50.016C196.597 49.68 197.365 49.512 198.197 49.512ZM205.832 56.304C205.832 54.96 206.096 53.768 206.624 52.728C207.168 51.688 207.904 50.888 208.832 50.328C209.76 49.768 210.792 49.488 211.928 49.488C212.792 49.488 213.616 49.68 214.4 50.064C215.184 50.432 215.808 50.928 216.272 51.552V45.24H219.68V63H216.272V61.032C215.856 61.688 215.272 62.216 214.52 62.616C213.768 63.016 212.896 63.216 211.904 63.216C210.784 63.216 209.76 62.928 208.832 62.352C207.904 61.776 207.168 60.968 206.624 59.928C206.096 58.872 205.832 57.664 205.832 56.304ZM216.296 56.352C216.296 55.536 216.136 54.84 215.816 54.264C215.496 53.672 215.064 53.224 214.52 52.92C213.976 52.6 213.392 52.44 212.768 52.44C212.144 52.44 211.568 52.592 211.04 52.896C210.512 53.2 210.08 53.648 209.744 54.24C209.424 54.816 209.264 55.504 209.264 56.304C209.264 57.104 209.424 57.808 209.744 58.416C210.08 59.008 210.512 59.464 211.04 59.784C211.584 60.104 212.16 60.264 212.768 60.264C213.392 60.264 213.976 60.112 214.52 59.808C215.064 59.488 215.496 59.04 215.816 58.464C216.136 57.872 216.296 57.168 216.296 56.352ZM236.456 63.168C234.888 63.168 233.448 62.8 232.136 62.064C230.824 61.328 229.784 60.312 229.016 59.016C228.248 57.704 227.864 56.224 227.864 54.576C227.864 52.944 228.248 51.48 229.016 50.184C229.784 48.872 230.824 47.848 232.136 47.112C233.448 46.376 234.888 46.008 236.456 46.008C238.04 46.008 239.48 46.376 240.776 47.112C242.088 47.848 243.12 48.872 243.872 50.184C244.64 51.48 245.024 52.944 245.024 54.576C245.024 56.224 244.64 57.704 243.872 59.016C243.12 60.312 242.088 61.328 240.776 62.064C239.464 62.8 238.024 63.168 236.456 63.168ZM236.456 60.168C237.464 60.168 238.352 59.944 239.12 59.496C239.888 59.032 240.488 58.376 240.92 57.528C241.352 56.68 241.568 55.696 241.568 54.576C241.568 53.456 241.352 52.48 240.92 51.648C240.488 50.8 239.888 50.152 239.12 49.704C238.352 49.256 237.464 49.032 236.456 49.032C235.448 49.032 234.552 49.256 233.768 49.704C233 50.152 232.4 50.8 231.968 51.648C231.536 52.48 231.32 53.456 231.32 54.576C231.32 55.696 231.536 56.68 231.968 57.528C232.4 58.376 233 59.032 233.768 59.496C234.552 59.944 235.448 60.168 236.456 60.168ZM258.924 46.248V48.96H254.46V63H251.1V48.96H246.636V46.248H258.924ZM273.592 51.432C273.592 52.328 273.376 53.168 272.944 53.952C272.528 54.736 271.864 55.368 270.952 55.848C270.056 56.328 268.92 56.568 267.544 56.568H264.736V63H261.376V46.248H267.544C268.84 46.248 269.944 46.472 270.856 46.92C271.768 47.368 272.448 47.984 272.896 48.768C273.36 49.552 273.592 50.44 273.592 51.432ZM267.4 53.856C268.328 53.856 269.016 53.648 269.464 53.232C269.912 52.8 270.136 52.2 270.136 51.432C270.136 49.8 269.224 48.984 267.4 48.984H264.736V53.856H267.4Z" fill="white"/>
<defs>
<filter id="filter0_d_3_40" x="0" y="0" width="434" height="150" filterUnits="userSpaceOnUse" color-interpolation-filters="sRGB">
<feFlood flood-opacity="0" result="BackgroundImageFix"/>
<feColorMatrix in="SourceAlpha" type="matrix" values="0 0 0 0 0 0 0 0 0 0 0 0 0 0 0 0 0 0 127 0" result="hardAlpha"/>
<feOffset dy="20"/>
<feGaussianBlur stdDeviation="20"/>
<feColorMatrix type="matrix" values="0 0 0 0 0 0 0 0 0 0 0 0 0 0 0 0 0 0 0.1 0"/>
<feBlend mode="normal" in2="BackgroundImageFix" result="effect1_dropShadow_3_40"/>
<feBlend mode="normal" in="SourceGraphic" in2="effect1_dropShadow_3_40" result="shape"/>
</filter>
</defs>
</svg>
