<svg width="347" height="18" viewBox="0 0 347 18" fill="none" xmlns="http://www.w3.org/2000/svg">
<rect x="236.431" y="11.2264" width="110.569" height="0.561321" fill="black" fill-opacity="0.4"/>
<path d="M136.177 13.108C135.561 13.108 135.001 12.968 134.497 12.688C134.001 12.408 133.609 12.012 133.321 11.5C133.041 10.98 132.901 10.38 132.901 9.7C132.901 9.028 133.045 8.436 133.333 7.924C133.629 7.404 134.029 7.008 134.533 6.736C135.037 6.456 135.601 6.316 136.225 6.316C136.849 6.316 137.413 6.456 137.917 6.736C138.421 7.008 138.817 7.4 139.105 7.912C139.401 8.424 139.549 9.02 139.549 9.7C139.549 10.38 139.397 10.98 139.093 11.5C138.797 12.012 138.393 12.408 137.881 12.688C137.369 12.968 136.801 13.108 136.177 13.108ZM136.177 12.148C136.569 12.148 136.937 12.056 137.281 11.872C137.625 11.688 137.901 11.412 138.109 11.044C138.325 10.676 138.433 10.228 138.433 9.7C138.433 9.172 138.329 8.724 138.121 8.356C137.913 7.988 137.641 7.716 137.305 7.54C136.969 7.356 136.605 7.264 136.213 7.264C135.813 7.264 135.445 7.356 135.109 7.54C134.781 7.716 134.517 7.988 134.317 8.356C134.117 8.724 134.017 9.172 134.017 9.7C134.017 10.236 134.113 10.688 134.305 11.056C134.505 11.424 134.769 11.7 135.097 11.884C135.425 12.06 135.785 12.148 136.177 12.148ZM142.077 7.492C142.269 7.116 142.541 6.824 142.893 6.616C143.253 6.408 143.689 6.304 144.201 6.304V7.432H143.913C142.689 7.432 142.077 8.096 142.077 9.424V13H140.985V6.424H142.077V7.492ZM150.988 13.108C150.484 13.108 150.032 13.024 149.632 12.856C149.232 12.68 148.916 12.44 148.684 12.136C148.452 11.824 148.324 11.468 148.3 11.068H149.428C149.46 11.396 149.612 11.664 149.884 11.872C150.164 12.08 150.528 12.184 150.976 12.184C151.392 12.184 151.72 12.092 151.96 11.908C152.2 11.724 152.32 11.492 152.32 11.212C152.32 10.924 152.192 10.712 151.936 10.576C151.68 10.432 151.284 10.292 150.748 10.156C150.26 10.028 149.86 9.9 149.548 9.772C149.244 9.636 148.98 9.44 148.756 9.184C148.54 8.92 148.432 8.576 148.432 8.152C148.432 7.816 148.532 7.508 148.732 7.228C148.932 6.948 149.216 6.728 149.584 6.568C149.952 6.4 150.372 6.316 150.844 6.316C151.572 6.316 152.16 6.5 152.608 6.868C153.056 7.236 153.296 7.74 153.328 8.38H152.236C152.212 8.036 152.072 7.76 151.816 7.552C151.568 7.344 151.232 7.24 150.808 7.24C150.416 7.24 150.104 7.324 149.872 7.492C149.64 7.66 149.524 7.88 149.524 8.152C149.524 8.368 149.592 8.548 149.728 8.692C149.872 8.828 150.048 8.94 150.256 9.028C150.472 9.108 150.768 9.2 151.144 9.304C151.616 9.432 152 9.56 152.296 9.688C152.592 9.808 152.844 9.992 153.052 10.24C153.268 10.488 153.38 10.812 153.388 11.212C153.388 11.572 153.288 11.896 153.088 12.184C152.888 12.472 152.604 12.7 152.236 12.868C151.876 13.028 151.46 13.108 150.988 13.108ZM155.494 5.356C155.286 5.356 155.11 5.284 154.966 5.14C154.822 4.996 154.75 4.82 154.75 4.612C154.75 4.404 154.822 4.228 154.966 4.084C155.11 3.94 155.286 3.868 155.494 3.868C155.694 3.868 155.862 3.94 155.998 4.084C156.142 4.228 156.214 4.404 156.214 4.612C156.214 4.82 156.142 4.996 155.998 5.14C155.862 5.284 155.694 5.356 155.494 5.356ZM156.022 6.424V13H154.93V6.424H156.022ZM160.595 6.316C161.163 6.316 161.659 6.44 162.083 6.688C162.515 6.936 162.835 7.248 163.043 7.624V6.424H164.147V13.144C164.147 13.744 164.019 14.276 163.763 14.74C163.507 15.212 163.139 15.58 162.659 15.844C162.187 16.108 161.635 16.24 161.003 16.24C160.139 16.24 159.419 16.036 158.843 15.628C158.267 15.22 157.927 14.664 157.823 13.96H158.903C159.023 14.36 159.271 14.68 159.647 14.92C160.023 15.168 160.475 15.292 161.003 15.292C161.603 15.292 162.091 15.104 162.467 14.728C162.851 14.352 163.043 13.824 163.043 13.144V11.764C162.827 12.148 162.507 12.468 162.083 12.724C161.659 12.98 161.163 13.108 160.595 13.108C160.011 13.108 159.479 12.964 158.999 12.676C158.527 12.388 158.155 11.984 157.883 11.464C157.611 10.944 157.475 10.352 157.475 9.688C157.475 9.016 157.611 8.428 157.883 7.924C158.155 7.412 158.527 7.016 158.999 6.736C159.479 6.456 160.011 6.316 160.595 6.316ZM163.043 9.7C163.043 9.204 162.943 8.772 162.743 8.404C162.543 8.036 162.271 7.756 161.927 7.564C161.591 7.364 161.219 7.264 160.811 7.264C160.403 7.264 160.031 7.36 159.695 7.552C159.359 7.744 159.091 8.024 158.891 8.392C158.691 8.76 158.591 9.192 158.591 9.688C158.591 10.192 158.691 10.632 158.891 11.008C159.091 11.376 159.359 11.66 159.695 11.86C160.031 12.052 160.403 12.148 160.811 12.148C161.219 12.148 161.591 12.052 161.927 11.86C162.271 11.66 162.543 11.376 162.743 11.008C162.943 10.632 163.043 10.196 163.043 9.7ZM169.196 6.304C169.996 6.304 170.644 6.548 171.14 7.036C171.636 7.516 171.884 8.212 171.884 9.124V13H170.804V9.28C170.804 8.624 170.64 8.124 170.312 7.78C169.984 7.428 169.536 7.252 168.968 7.252C168.392 7.252 167.932 7.432 167.588 7.792C167.252 8.152 167.084 8.676 167.084 9.364V13H165.992V6.424H167.084V7.36C167.3 7.024 167.592 6.764 167.96 6.58C168.336 6.396 168.748 6.304 169.196 6.304ZM177.431 5.356C177.223 5.356 177.047 5.284 176.903 5.14C176.759 4.996 176.687 4.82 176.687 4.612C176.687 4.404 176.759 4.228 176.903 4.084C177.047 3.94 177.223 3.868 177.431 3.868C177.631 3.868 177.799 3.94 177.935 4.084C178.079 4.228 178.151 4.404 178.151 4.612C178.151 4.82 178.079 4.996 177.935 5.14C177.799 5.284 177.631 5.356 177.431 5.356ZM177.959 6.424V13H176.867V6.424H177.959ZM183.024 6.304C183.824 6.304 184.472 6.548 184.968 7.036C185.464 7.516 185.712 8.212 185.712 9.124V13H184.632V9.28C184.632 8.624 184.468 8.124 184.14 7.78C183.812 7.428 183.364 7.252 182.796 7.252C182.22 7.252 181.76 7.432 181.416 7.792C181.08 8.152 180.912 8.676 180.912 9.364V13H179.82V6.424H180.912V7.36C181.128 7.024 181.42 6.764 181.788 6.58C182.164 6.396 182.576 6.304 183.024 6.304ZM199.455 6.424L197.403 13H196.275L194.691 7.78L193.107 13H191.979L189.915 6.424H191.031L192.543 11.944L194.175 6.424H195.291L196.887 11.956L198.375 6.424H199.455ZM201.103 5.356C200.895 5.356 200.719 5.284 200.575 5.14C200.431 4.996 200.359 4.82 200.359 4.612C200.359 4.404 200.431 4.228 200.575 4.084C200.719 3.94 200.895 3.868 201.103 3.868C201.303 3.868 201.471 3.94 201.607 4.084C201.751 4.228 201.823 4.404 201.823 4.612C201.823 4.82 201.751 4.996 201.607 5.14C201.471 5.284 201.303 5.356 201.103 5.356ZM201.631 6.424V13H200.539V6.424H201.631ZM204.824 7.324V11.2C204.824 11.52 204.892 11.748 205.028 11.884C205.164 12.012 205.4 12.076 205.736 12.076H206.54V13H205.556C204.948 13 204.492 12.86 204.188 12.58C203.884 12.3 203.732 11.84 203.732 11.2V7.324H202.88V6.424H203.732V4.768H204.824V6.424H206.54V7.324H204.824ZM211.127 6.304C211.623 6.304 212.071 6.412 212.471 6.628C212.871 6.836 213.183 7.152 213.407 7.576C213.639 8 213.755 8.516 213.755 9.124V13H212.675V9.28C212.675 8.624 212.511 8.124 212.183 7.78C211.855 7.428 211.407 7.252 210.839 7.252C210.263 7.252 209.803 7.432 209.459 7.792C209.123 8.152 208.955 8.676 208.955 9.364V13H207.863V4.12H208.955V7.36C209.171 7.024 209.467 6.764 209.843 6.58C210.227 6.396 210.655 6.304 211.127 6.304Z" fill="black"/>
<rect y="11.2264" width="110.569" height="0.561321" fill="black" fill-opacity="0.4"/>
</svg>
